<?xml version="1.0" encoding="utf-8"?>
<!-- Generator: Adobe Illustrator 24.2.0, SVG Export Plug-In . SVG Version: 6.00 Build 0)  -->
<svg version="1.1" id="Layer_1" xmlns="http://www.w3.org/2000/svg" xmlns:xlink="http://www.w3.org/1999/xlink" x="0px" y="0px"
	 viewBox="0 0 140 140" style="enable-background:new 0 0 140 140;" xml:space="preserve">
<style type="text/css">
	.st0{fill-rule:evenodd;clip-rule:evenodd;}
</style>
<g id="Pages">
	<g id="Group-4-Copy">
		<path id="Combined-Shape" class="st0" d="M75.4,0c0.6,0,1,0.4,1,1v10.7c0,0.6-0.4,1-1,1l-62.6,0v114.5h114.5l0-62.6
			c0-0.6,0.4-1,1-1H139c0.6,0,1,0.4,1,1V139c0,0.5-0.4,0.9-0.9,1l-0.1,0l0,0H1c-0.6,0-1-0.4-1-1V1c0-0.6,0.4-1,1-1H75.4z
			 M113.5,92.3c0.6,0,1,0.4,1,1V104c0,0.6-0.4,1-1,1H20.1c-0.6,0-1-0.4-1-1V93.3c0-0.6,0.4-1,1-1H113.5z M95.4,1l17.3,17.3L130,1
			c0.4-0.4,1-0.4,1.4,0l7.6,7.6c0.4,0.4,0.4,1,0,1.4l-17.3,17.3L139,44.6c0.4,0.4,0.4,1,0,1.4l-7.6,7.6c-0.4,0.4-1,0.4-1.4,0
			l-17.3-17.3L95.4,53.6c-0.4,0.4-1,0.4-1.4,0L86.4,46c-0.4-0.4-0.4-1,0-1.4l17.3-17.3L86.4,10c-0.4-0.4-0.4-1,0-1.4L94,1
			C94.4,0.6,95,0.6,95.4,1z M56.3,38.2c0.6,0,1,0.4,1,1v10.7c0,0.6-0.4,1-1,1H20.1c-0.6,0-1-0.4-1-1V39.2c0-0.6,0.4-1,1-1H56.3z"/>
	</g>
</g>
<path id="Rectangle-Copy-15" class="st0" d="M95.5,71v10.7c0,0.6-0.4,1-1,1H20.1c-0.6,0-1-0.4-1-1V71c0-0.6,0.4-1,1-1h74.4
	C95,70,95.5,70.4,95.5,71z"/>
</svg>
