<?xml version="1.0" encoding="utf-8"?>
<!-- Generator: Adobe Illustrator 24.2.0, SVG Export Plug-In . SVG Version: 6.00 Build 0)  -->
<svg version="1.0" id="Layer_1" xmlns="http://www.w3.org/2000/svg" xmlns:xlink="http://www.w3.org/1999/xlink" x="0px" y="0px"
	 viewBox="0 0 140 140" enable-background="new 0 0 140 140" xml:space="preserve">
<rect fill="none" width="140" height="140"/>
<g>
	<path d="M135,63c-0.6,0-1.2,0.1-1.8,0.4l-22.5,8.2V57.4c0-4.9-4-8.9-8.9-8.9H9.2c-4.9,0-8.9,4-8.9,8.9v70.2c0,4.9,4,8.9,8.9,8.9
		h92.6c4.9,0,8.9-4,8.9-8.9v-16.1l22.5,8.2c0.6,0.2,1.2,0.4,1.8,0.4c2.5,0,4.7-2,4.7-4.7V67.7C139.7,65,137.4,63,135,63z
		 M101.6,127.5H9.3V57.6h92.3V127.5z M130.7,109.3l-20-7.3V81.1l20-7.3V109.3z"/>
	<path d="M83.3,3.5h-24c-6.9,0-12.8,4.5-14.8,10.8H26.4c-4.3,0-7.8,3.5-7.8,7.8v17c0,2.5,2,4.5,4.5,4.5s4.5-2,4.5-4.5V23.3h16.9
		c1.9,6.4,7.8,11.1,14.8,11.1h24c8.5,0,15.5-6.9,15.5-15.5S91.9,3.5,83.3,3.5z M83.3,25.4h-24c-3.6,0-6.5-2.9-6.5-6.5
		s2.9-6.5,6.5-6.5h24c3.6,0,6.5,2.9,6.5,6.5S86.9,25.4,83.3,25.4z"/>
	<g>
		<path d="M67.9,115.9H41.1c-6,0-11-4.9-11-11V78.1c0-6,4.9-11,11-11h26.9c6,0,11,4.9,11,11V105C78.9,111,74,115.9,67.9,115.9z
			 M41.1,76.1c-1.1,0-2,0.9-2,2V105c0,1.1,0.9,2,2,2h26.9c1.1,0,2-0.9,2-2V78.1c0-1.1-0.9-2-2-2H41.1z"/>
	</g>
</g>
</svg>
