<?xml version="1.0" encoding="utf-8"?>
<!-- Generator: Adobe Illustrator 24.2.0, SVG Export Plug-In . SVG Version: 6.00 Build 0)  -->
<svg version="1.0" id="Layer_1" xmlns="http://www.w3.org/2000/svg" xmlns:xlink="http://www.w3.org/1999/xlink" x="0px" y="0px"
	 viewBox="0 0 140 140" enable-background="new 0 0 140 140" xml:space="preserve">
<rect fill="none" width="140" height="140"/>
<g>
	<path d="M135,63c-0.6,0-1.2,0.1-1.8,0.4l-22.5,8.2V57.4c0-4.9-4-8.9-8.9-8.9H9.2c-4.9,0-8.9,4-8.9,8.9v70.2c0,4.9,4,8.9,8.9,8.9
		h92.6c4.9,0,8.9-4,8.9-8.9v-16.1l22.5,8.2c0.6,0.2,1.2,0.4,1.8,0.4c2.5,0,4.7-2,4.7-4.7V67.7C139.7,65,137.4,63,135,63z
		 M101.6,127.5H9.3V57.6h92.3V127.5z M130.7,109.3l-20-7.3V81.1l20-7.3V109.3z"/>
	<path d="M35,119.5c1.4,0.8,2.8,1.2,4.3,1.2c1.5,0,2.9-0.4,4.3-1.1h0L77.8,100c2.7-1.6,4.3-4.4,4.3-7.5s-1.6-5.9-4.3-7.5L43.6,65.5
		c-2.7-1.5-5.9-1.5-8.6,0c-2.7,1.6-4.3,4.3-4.3,7.5v39.1C30.7,115.2,32.3,118,35,119.5z M39.7,73.7l33.1,18.9l-33.1,18.9V73.7z"/>
	<path d="M23.1,43.6c2.5,0,4.5-2,4.5-4.5V23.3h16.9c1.9,6.4,7.8,11.1,14.8,11.1h24c8.5,0,15.5-6.9,15.5-15.5S91.9,3.5,83.3,3.5h-24
		c-6.9,0-12.8,4.5-14.8,10.8H26.4c-4.3,0-7.8,3.5-7.8,7.8v17C18.6,41.6,20.6,43.6,23.1,43.6z M59.4,12.5h24c3.6,0,6.5,2.9,6.5,6.5
		s-2.9,6.5-6.5,6.5h-24c-3.6,0-6.5-2.9-6.5-6.5S55.8,12.5,59.4,12.5z"/>
</g>
</svg>
