<?xml version="1.0" encoding="utf-8"?>
<!-- Generator: Adobe Illustrator 24.2.0, SVG Export Plug-In . SVG Version: 6.00 Build 0)  -->
<svg version="1.0" id="Layer_1" xmlns="http://www.w3.org/2000/svg" xmlns:xlink="http://www.w3.org/1999/xlink" x="0px" y="0px"
	 viewBox="0 0 140 140" enable-background="new 0 0 140 140" xml:space="preserve">
<rect fill="none" width="140" height="140"/>
<g>
	<path d="M50.7,102.6c-12.3-6.1-29.5-7.6-38.7-8c-1.5-0.1-2.7-1.3-2.7-2.8V10.2c0-0.4,0.2-0.7,0.4-0.9C9.9,9.2,10.2,9,10.6,9
		c27,1.6,47.2,7.5,54.1,15.9c0.4,0.4,0.6,1,0.6,1.7v23.1c0,2.5,2,4.5,4.5,4.5c0,0,0.1,0,0.1,0c0,0,0.1,0,0.1,0c2.5,0,4.5-2,4.5-4.5
		V26.5c0-0.6,0.2-1.2,0.6-1.7C82,16.5,102.2,10.6,129.2,9c0.4,0,0.7,0.2,0.9,0.3c0.2,0.2,0.4,0.4,0.4,0.9v76.4c0,2.5,2,4.5,4.5,4.5
		s4.5-2,4.5-4.5V10.2c0-2.8-1.2-5.5-3.2-7.4c-2-1.9-4.8-2.9-7.6-2.8c-16.7,1-45.9,4.5-58.8,17.2C57,4.5,27.9,1,11.1,0
		C8.4-0.1,5.6,0.9,3.5,2.8c-2,1.9-3.2,4.6-3.2,7.4v81.6c0,6.3,5,11.5,11.3,11.8c8.5,0.4,24.2,1.7,35.1,7.1c0.6,0.3,1.3,0.5,2,0.5
		c1.7,0,3.3-0.9,4-2.5C53.8,106.4,52.9,103.7,50.7,102.6z"/>
	<path d="M56.8,33.6c-11.8-5.8-32.2-7.7-33-7.8c-2.5-0.2-4.7,1.6-4.9,4.1c-0.2,2.5,1.6,4.7,4.1,4.9c0.2,0,19.6,1.9,29.9,7
		c0.6,0.3,1.3,0.5,2,0.5c1.7,0,3.3-0.9,4-2.5C60,37.4,59,34.7,56.8,33.6z"/>
	<path d="M121.8,29.8c-0.2-2.5-2.4-4.3-4.9-4.1c-0.9,0.1-21.2,2.1-33,7.8c-2.2,1.1-3.2,3.8-2.1,6c0.8,1.6,2.4,2.5,4,2.5
		c0.7,0,1.3-0.1,2-0.5c10.3-5.1,29.7-6.9,29.9-7C120.2,34.5,122,32.3,121.8,29.8z"/>
	<path d="M108.7,58.4c0.3,0,0.5,0,0.8-0.1c5.6-1,7.8-1.1,7.9-1.1c2.5,0,4.5-2,4.5-4.5c0-2.5-2-4.5-4.5-4.5c-0.4,0-3,0-9.4,1.2
		c-2.4,0.4-4.1,2.8-3.6,5.2C104.6,56.9,106.5,58.4,108.7,58.4z"/>
	<path d="M56.8,56.1c-11.8-5.8-32.2-7.7-33-7.8c-2.5-0.2-4.7,1.6-4.9,4.1c-0.2,2.5,1.6,4.7,4.1,4.9c0.2,0,19.6,1.9,29.9,7
		c0.6,0.3,1.3,0.5,2,0.5c1.7,0,3.3-0.9,4-2.5C60,59.9,59,57.2,56.8,56.1z"/>
	<path d="M56.8,79.7c-11.8-5.8-32.2-7.7-33-7.8c-2.5-0.2-4.7,1.6-4.9,4.1c-0.2,2.5,1.6,4.7,4.1,4.9c0.2,0,19.6,1.9,29.9,7
		c0.6,0.3,1.3,0.5,2,0.5c1.7,0,3.3-0.9,4-2.5C60,83.5,59,80.8,56.8,79.7z"/>
	<path d="M132.7,111c-4.1-3.5-9.1-6-14.5-7.1l-12.1-2.5V68.5c0-8.4-6.8-15.2-15.2-15.2s-15.2,6.8-15.2,15.2v50.7l-1.3-1.2
		c-4.5-4.3-11.3-4.7-16.2-0.9c-5.1,3.9-6.5,11-3.1,16.5l2.7,4.3c0.8,1.4,2.3,2.1,3.8,2.1c0.8,0,1.6-0.2,2.3-0.7
		c2.1-1.3,2.8-4.1,1.5-6.2l-2.7-4.3c-0.9-1.5-0.6-3.5,0.9-4.6c1.4-1.1,3.3-0.9,4.5,0.3l4.9,4.7c2,1.9,4.9,2.4,7.4,1.4
		c2.5-1.1,4.2-3.6,4.2-6.3V68.5c0-3.4,2.8-6.2,6.2-6.2s6.2,2.8,6.2,6.2v40.1l19.2,4c3.9,0.8,7.5,2.6,10.5,5.1c2.6,2.3,4.2,5.5,4.2,9
		v7.9c0,2.5,2,4.5,4.5,4.5s4.5-2,4.5-4.5v-7.9C140,120.7,137.3,114.9,132.7,111z"/>
</g>
</svg>
