<?xml version="1.0" encoding="utf-8"?>
<!-- Generator: Adobe Illustrator 24.2.0, SVG Export Plug-In . SVG Version: 6.00 Build 0)  -->
<svg version="1.0" id="Layer_1" xmlns="http://www.w3.org/2000/svg" xmlns:xlink="http://www.w3.org/1999/xlink" x="0px" y="0px"
	 viewBox="0 0 140 140" enable-background="new 0 0 140 140" xml:space="preserve">
<rect fill="none" width="140" height="140"/>
<g>
	<path d="M109,9v122H18V9H109 M113.5,0H13.5C11,0,9,2,9,4.4v131.1c0,2.4,2,4.4,4.4,4.4h100.1c2.4,0,4.4-2,4.4-4.4V4.4
		C118,2,116,0,113.5,0L113.5,0z"/>
	<path d="M87.4,35v21.9H48.3V35H87.4 M92,26H43.7c-2.4,0-4.4,2-4.4,4.4v31c0,2.4,2,4.4,4.4,4.4H92c2.4,0,4.4-2,4.4-4.4v-31
		C96.4,28,94.4,26,92,26L92,26z"/>
	<g>
		<path d="M22.7,30.5h-18c-2.5,0-4.5-2-4.5-4.5s2-4.5,4.5-4.5h18c2.5,0,4.5,2,4.5,4.5S25.2,30.5,22.7,30.5z"/>
	</g>
	<g>
		<path d="M22.7,74.5h-18c-2.5,0-4.5-2-4.5-4.5s2-4.5,4.5-4.5h18c2.5,0,4.5,2,4.5,4.5S25.2,74.5,22.7,74.5z"/>
	</g>
	<g>
		<path d="M22.7,109.8h-18c-2.5,0-4.5-2-4.5-4.5s2-4.5,4.5-4.5h18c2.5,0,4.5,2,4.5,4.5S25.2,109.8,22.7,109.8z"/>
	</g>
	<path d="M125.6,8.8h-16.8V97h16.8c7.9,0,14.2-6.4,14.2-14.2V23C139.8,15.1,133.4,8.8,125.6,8.8z M117.7,44.3h13.1v17.1h-13.1V44.3z
		 M125.6,17.8c2.9,0,5.2,2.3,5.2,5.2v12.3h-13.1V17.8H125.6z M125.6,88h-7.8V70.4h13.1v12.4C130.8,85.6,128.4,88,125.6,88z"/>
</g>
</svg>
