<?xml version="1.0" encoding="utf-8"?>
<!-- Generator: Adobe Illustrator 24.2.0, SVG Export Plug-In . SVG Version: 6.00 Build 0)  -->
<svg version="1.0" id="Layer_1" xmlns="http://www.w3.org/2000/svg" xmlns:xlink="http://www.w3.org/1999/xlink" x="0px" y="0px"
	 viewBox="0 0 140 140" enable-background="new 0 0 140 140" xml:space="preserve">
<rect fill="none" width="140" height="140"/>
<g>
	<path d="M124.5,0h-109C7,0,0,7,0,15.5v92.6c0,8.5,7,15.5,15.5,15.5h5.1c2.3,0,4.2-1.9,4.2-4.2c0-2.3-1.9-4.2-4.2-4.2h-5.1
		c-3.9,0-7-3.2-7-7V38.5c0.4,0.1,0.8,0.2,1.2,0.2h121.4c0.2,0,0.3,0,0.5,0v69.4c0,3.9-3.2,7-7,7h-4.8c-2.3,0-4.2,1.9-4.2,4.2
		c0,2.3,1.9,4.2,4.2,4.2h4.8c8.5,0,15.5-7,15.5-15.5V15.5C140,7,133,0,124.5,0z M131.1,30.2H9.7c-0.4,0-0.8,0.1-1.2,0.2V15.5
		c0-3.9,3.2-7,7-7h109c3.9,0,7,3.2,7,7v14.8C131.4,30.2,131.2,30.2,131.1,30.2z"/>
	<path d="M78.5,87.1L66.2,99.3c-1.8,1.8-1.8,4.6,0,6.4c0.9,0.9,2,1.3,3.2,1.3s2.3-0.4,3.2-1.3l12.3-12.3c1.8-1.8,1.8-4.6,0-6.4
		C83.1,85.3,80.3,85.3,78.5,87.1z"/>
	<path d="M103.9,71.8c1.6-1.6,1.6-4.3,0-5.9c-1.6-1.6-4.3-1.6-5.9,0l-6,6c-5.1-3.7-11.2-6.2-17.8-7v-8.1h4.7c2.3,0,4.2-1.9,4.2-4.2
		c0-2.3-1.9-4.2-4.2-4.2H61.2c-2.3,0-4.2,1.9-4.2,4.2c0,2.3,1.9,4.2,4.2,4.2h4.6v8.1c-6.5,0.7-12.6,3.2-17.6,6.8l-5.9-5.9
		c-1.6-1.6-4.3-1.6-5.9,0c-1.6,1.6-1.6,4.3,0,5.9l5.6,5.6c-5.8,6.6-9.3,15.2-9.3,24.6c0,20.6,16.7,37.3,37.3,37.3
		s37.3-16.7,37.3-37.3c0-9.3-3.5-17.9-9.1-24.4L103.9,71.8z M70,130.9c-16,0-28.9-13-28.9-28.9S54,73,70,73c16,0,28.9,13,28.9,28.9
		S86,130.9,70,130.9z"/>
</g>
</svg>
