<?xml version="1.0" encoding="utf-8"?>
<!-- Generator: Adobe Illustrator 24.2.0, SVG Export Plug-In . SVG Version: 6.00 Build 0)  -->
<svg version="1.0" id="Layer_1" xmlns="http://www.w3.org/2000/svg" xmlns:xlink="http://www.w3.org/1999/xlink" x="0px" y="0px"
	 viewBox="0 0 140 140" enable-background="new 0 0 140 140" xml:space="preserve">
<rect fill="none" width="140" height="140"/>
<g>
	<path d="M57.5,73.4c0-2.5-2-4.5-4.5-4.5h-8.8L54,54.8c2.6-3.8,3-8.7,1-12.9c-1.9-4.1-5.7-6.7-10.2-7.1c-0.4,0-0.7,0-1.1,0
		c-7.5,0-13.7,6.1-13.7,13.7c0,2.5,2,4.5,4.5,4.5s4.5-2,4.5-4.5c0-2.6,2.1-4.7,4.7-4.7c0.1,0,0.3,0,0.4,0c1.7,0.1,2.4,1.3,2.8,2
		c0.6,1.3,0.5,2.7-0.3,3.9L31.9,70.9c-1,1.4-1.1,3.2-0.3,4.7s2.3,2.4,4,2.4H53C55.5,77.9,57.5,75.9,57.5,73.4z"/>
	<path d="M91.6,68.9c-2.5,0-4.5,2-4.5,4.5s2,4.5,4.5,4.5h14.6c2.5,0,4.5-2,4.5-4.5s-2-4.5-4.5-4.5h-2.9v-26c0-4.5-3.7-8.1-8.1-8.1
		h-3.4c-2.5,0-4.5,2-4.5,4.5s2,4.5,4.5,4.5h2.5v25.2H91.6z"/>
	<path d="M135,87.1h-7.9V33.9c0-9.2-7.5-16.7-16.7-16.7H29.6c-9.2,0-16.7,7.5-16.7,16.7v53.2H5c-2.8,0-5,2.2-5,5v11.3
		c0,10.8,8.7,19.5,19.5,19.5h101c10.8,0,19.5-8.7,19.5-19.5V92.1C140,89.3,137.8,87.1,135,87.1z M21.9,33.9c0-4.2,3.5-7.7,7.7-7.7
		h80.8c4.2,0,7.7,3.5,7.7,7.7v53.2H85.4c-2.7,7-7.5,10-15.4,10c-7.9,0-12.7-3-15.4-10H21.9V33.9z M131,103.4
		c0,5.8-4.7,10.5-10.5,10.5h-101c-5.8,0-10.5-4.7-10.5-10.5v-7.3h40.2c4.5,6.6,11.5,10,20.8,10c9.4,0,16.3-3.3,20.8-10H131V103.4z"
		/>
	<path d="M63.4,60.9H68v4.6c0,2.5,2,4.5,4.5,4.5s4.5-2,4.5-4.5v-4.6h4.6c2.5,0,4.5-2,4.5-4.5s-2-4.5-4.5-4.5H77v-4.6
		c0-2.5-2-4.5-4.5-4.5s-4.5,2-4.5,4.5v4.6h-4.6c-2.5,0-4.5,2-4.5,4.5S60.9,60.9,63.4,60.9z"/>
</g>
</svg>
