<?xml version="1.0" encoding="utf-8"?>
<!-- Generator: Adobe Illustrator 24.2.0, SVG Export Plug-In . SVG Version: 6.00 Build 0)  -->
<svg version="1.0" id="Layer_1" xmlns="http://www.w3.org/2000/svg" xmlns:xlink="http://www.w3.org/1999/xlink" x="0px" y="0px"
	 viewBox="0 0 140 140" enable-background="new 0 0 140 140" xml:space="preserve">
<path d="M135.6,0H4.4C2,0,0,2,0,4.4v131.1c0,2.4,2,4.4,4.4,4.4h63.9h21.9h0h21.9h23.3c2.4,0,4.4-2,4.4-4.4V4.4C140,2,138,0,135.6,0z
	 M131,9v56.5h-12.9c1.7-1.1,2.4-3.3,1.7-5.3L102,15c-0.7-1.7-2.4-2.8-4.1-2.8c-0.5,0-1.1,0.1-1.6,0.3l-20.4,8
	c-0.4-2-2.2-3.5-4.3-3.5H50h-0.5H28c-2.4,0-4.4,2-4.4,4.4v44H9V9H131z M66.9,65.5H54.4V26.1h12.5V65.5z M45.1,65.5H32.6V26.1h12.5
	V65.5z M75.9,33l12.8,32.5H75.9V33z M97.8,64L83.3,27.3l11.9-4.7l14.5,36.7L97.8,64z M72.9,131v-25.7h12.8V131H72.9z M94.9,131V91.6
	h12.8V131H94.9z M116.7,131V87c0-2.4-2-4.4-4.4-4.4h-22c-2.4,0-4.4,2-4.4,4.4v9.3H68.4c-2.4,0-4.4,2-4.4,4.4V131H9V74.5h122V131
	H116.7z"/>
<rect fill="none" width="140" height="140"/>
</svg>
