<?xml version="1.0" encoding="utf-8"?>
<!-- Generator: Adobe Illustrator 24.2.0, SVG Export Plug-In . SVG Version: 6.00 Build 0)  -->
<svg version="1.0" id="Layer_1" xmlns="http://www.w3.org/2000/svg" xmlns:xlink="http://www.w3.org/1999/xlink" x="0px" y="0px"
	 viewBox="0 0 140 140" enable-background="new 0 0 140 140" xml:space="preserve">
<rect fill="none" width="140" height="140"/>
<g>
	<path d="M138.1,96.2L97,78.3c-0.4-0.2-0.8-0.3-1.2-0.3c-0.4,0-0.8,0.1-1.2,0.3L53.5,96.2c-1.6,0.7-2.1,2.3-1.7,3.7
		c0,0.1,0,0.1,0,0.2v20.2c0,2.5,2,4.5,4.5,4.5s4.5-2,4.5-4.5v-15.8l9.1,3.3v18.4c0,2,1.2,3.8,3,4.6l21,8.9c0.6,0.3,1.3,0.4,1.9,0.4
		c0.7,0,1.3-0.1,1.9-0.4l21-8.9c1.8-0.8,3-2.6,3-4.6v-18.4l16.2-5.9C140.6,101,140.7,97.3,138.1,96.2z M95.8,87.6l25.1,10.9
		l-25.1,9.1l-25.1-9.1L95.8,87.6z M112.8,123.5l-17,7.2l-17-7.2v-11.9l11.8,4.7c1.6,0.7,3.4,1,5.1,1c1.8,0,3.5-0.3,5.1-1l11.8-4.7
		V123.5z"/>
	<g>
		<path d="M67.8,79.6c0.6,2.4,3.1,3.8,5.5,3.2c2.4-0.6,3.8-3.1,3.2-5.5c-4.2-15.9-18-27.3-34.2-28.7c11.4-2.1,20-12.1,20-24.1
			C62.4,11,51.4,0,37.9,0S13.4,11,13.4,24.5c0,12.2,9,22.4,20.8,24.2C15.4,50.9,0.8,66.4,0,85.7c-0.1,2.5,1.8,4.6,4.3,4.7
			c0.1,0,0.1,0,0.2,0c2.4,0,4.4-1.9,4.5-4.3C9.7,70,22.8,57.4,38.9,57.4C52.4,57.4,64.3,66.5,67.8,79.6z M22.4,24.5
			C22.4,15.9,29.3,9,37.9,9c8.5,0,15.5,6.9,15.5,15.5S46.4,40,37.9,40C29.3,40,22.4,33,22.4,24.5z"/>
		<path d="M73.9,58.2c2.2,1.2,4.9,0.3,6.1-1.9c3.4-6.5,10-10.5,17.3-10.5c8.1,0,15.5,5.1,18.3,12.7c0.7,1.8,2.4,2.9,4.2,2.9
			c0.5,0,1-0.1,1.6-0.3c2.3-0.9,3.5-3.4,2.7-5.8c-3.4-9.3-11.5-16-20.9-18c7.4-2.6,12.8-9.6,12.8-17.9c0-10.5-8.5-19-19-19
			s-19,8.5-19,19c0,8.4,5.5,15.5,13.1,18c-8,1.8-15,7.1-18.9,14.6C70.9,54.3,71.7,57,73.9,58.2z M86.9,19.5c0-5.5,4.5-10,10-10
			s10,4.5,10,10s-4.5,10-10,10S86.9,25,86.9,19.5z"/>
	</g>
</g>
</svg>
