<?xml version="1.0" encoding="utf-8"?>
<!-- Generator: Adobe Illustrator 24.2.0, SVG Export Plug-In . SVG Version: 6.00 Build 0)  -->
<svg version="1.0" id="Layer_1" xmlns="http://www.w3.org/2000/svg" xmlns:xlink="http://www.w3.org/1999/xlink" x="0px" y="0px"
	 viewBox="0 0 140 140" enable-background="new 0 0 140 140" xml:space="preserve">
<rect fill="none" width="140" height="140"/>
<g>
	<path d="M39.4,95.7H15.5c-3.6,0-6.5-2.9-6.5-6.5V43.3h86v21.9c0,2.5,2,4.5,4.5,4.5s4.5-2,4.5-4.5V23.8c0-8.5-6.9-15.5-15.5-15.5
		h-9.8V4.5c0-2.5-2-4.5-4.5-4.5s-4.5,2-4.5,4.5v3.8H34.7V4.5c0-2.5-2-4.5-4.5-4.5s-4.5,2-4.5,4.5v3.8H15.5C6.9,8.3,0,15.2,0,23.8
		v65.5c0,8.5,6.9,15.5,15.5,15.5h23.9c2.5,0,4.5-2,4.5-4.5S41.8,95.7,39.4,95.7z M15.5,17.3h10.2v2.9c0,2.5,2,4.5,4.5,4.5
		s4.5-2,4.5-4.5v-2.9h35.1v2.9c0,2.5,2,4.5,4.5,4.5s4.5-2,4.5-4.5v-2.9h9.8c3.6,0,6.5,2.9,6.5,6.5v10.6H9V23.8
		C9,20.2,11.9,17.3,15.5,17.3z"/>
	<path d="M138.1,96.2L97,78.3c-0.4-0.2-0.8-0.3-1.2-0.3c-0.4,0-0.8,0.1-1.2,0.3L53.5,96.2c-1.6,0.7-2.1,2.3-1.7,3.7
		c0,0.1,0,0.1,0,0.2v20.2c0,2.5,2,4.5,4.5,4.5s4.5-2,4.5-4.5v-15.9l9.1,3.3v18.4c0,2,1.2,3.8,3,4.6l21,8.9c0.6,0.3,1.3,0.4,1.9,0.4
		c0.7,0,1.3-0.1,1.9-0.4l21-8.9c1.8-0.8,3-2.6,3-4.6v-18.4l16.2-5.9C140.6,101,140.7,97.3,138.1,96.2z M95.8,87.6l25.1,10.9
		l-25.1,9.1l-25.1-9.1L95.8,87.6z M112.8,123.5l-17,7.2l-17-7.2v-11.9l11.8,4.7c1.6,0.7,3.4,1,5.1,1c1.8,0,3.5-0.3,5.1-1l11.8-4.7
		V123.5z"/>
</g>
</svg>
