<svg id="Layer_1" data-name="Layer 1" xmlns="http://www.w3.org/2000/svg" viewBox="0 0 135.43 136.61"><path d="M134.76,32.3a10,10,0,0,0-8-4,10.18,10.18,0,0,0-2.21.24L104.63,31.8l-.55.09-.53.16a19.57,19.57,0,0,0-8.11,4.88l-.15.15-.14.16L78.24,55.9a30.5,30.5,0,0,0-41.51,1.52L31,63.12A12.58,12.58,0,0,0,34.3,83.25l17,8.57.94.48,2.07,2.07,8.17,8.17,8.17,8.16,2.22,2.23.48.94,8.57,17A12.56,12.56,0,0,0,102,134.12l5.7-5.69a30.56,30.56,0,0,0,1.38-41.67l18.65-16.9.16-.14.15-.15A19.57,19.57,0,0,0,133,61.46l.16-.54.09-.54,3.27-19.92A10.12,10.12,0,0,0,134.76,32.3ZM37,69.13l5.7-5.7a22,22,0,0,1,29.79-1.22L54,82.65l-.63.71L38.11,75.65A4.07,4.07,0,0,1,37,69.13Zm64.69,53.29L96,128.11a4,4,0,0,1-2.87,1.2,4.07,4.07,0,0,1-3.65-2.26L81.7,111.58l.65-.59L102.8,92.47A22,22,0,0,1,101.73,122.42Zm26.42-83.65L124.82,59a11.08,11.08,0,0,1-2.75,4.56L103.15,80.69h0l-26.5,24-1.18-1.18h0l-7-7-6.84-6.84-1.33-1.33,41.14-45.42A10.91,10.91,0,0,1,106,40.19l20.23-3.33a1.89,1.89,0,0,1,.51-.07A1.48,1.48,0,0,1,128.15,38.77Z" transform="translate(-1.28 -1.19)"/><path d="M108.94,42.18a13.89,13.89,0,1,0,9.82,4.07A13.85,13.85,0,0,0,108.94,42.18Zm3.81,17.7a5.39,5.39,0,1,1,0-7.62A5.37,5.37,0,0,1,112.75,59.88Z" transform="translate(-1.28 -1.19)"/><path d="M47.5,108.7c-6,5.66-24.43,20.37-37.39,20.46H9.86c-.84-2.6,2.44-12.34,7-20.61a4.25,4.25,0,0,0-7.45-4.09,100.5,100.5,0,0,0-5,10.75c-3.46,8.83-4,14.72-1.74,18.53a8.18,8.18,0,0,0,7.43,3.92h.09c18.92-.14,42.18-21.85,43.16-22.77a4.25,4.25,0,0,0-5.83-6.19Z" transform="translate(-1.28 -1.19)"/><path d="M29.21,106.17a4.2,4.2,0,0,0,2.53-.84,4.25,4.25,0,0,0,.88-5.94,56.23,56.23,0,0,1,73.32-82.15,4.25,4.25,0,1,0,4.27-7.35,64.73,64.73,0,0,0-84.42,94.56A4.24,4.24,0,0,0,29.21,106.17Z" transform="translate(-1.28 -1.19)"/></svg>