<?xml version="1.0" encoding="utf-8"?>
<!-- Generator: Adobe Illustrator 24.2.0, SVG Export Plug-In . SVG Version: 6.00 Build 0)  -->
<svg version="1.0" id="Layer_1" xmlns="http://www.w3.org/2000/svg" xmlns:xlink="http://www.w3.org/1999/xlink" x="0px" y="0px"
	 viewBox="0 0 140 140" enable-background="new 0 0 140 140" xml:space="preserve">
<rect fill="none" width="140" height="140"/>
<g>
	<path d="M132.5,55.4c-3.1-2.3-6.6-3.3-10.1-3.3c-5.2,0-10.4,2.4-13.8,6.9l-36.4,49.3c-0.4,0.5-0.5,1-0.6,1.6l-0.5,24.6
		c0,1.7,1.3,2.9,2.8,2.9c0.3,0,0.6,0,0.9-0.1l23.4-7.7c0.6-0.2,1.1-0.5,1.4-1l36.4-49.3C141.7,71.7,140.1,61,132.5,55.4z M128.9,74
		l-35.2,47.7l-13.3,4.4l0.3-14l35.2-47.7c1.5-2.1,3.9-3.3,6.5-3.3c1.7,0,3.4,0.5,4.8,1.6C130.8,65.3,131.5,70.4,128.9,74z"/>
	<path d="M123.3,13.9H114v-9c0-2.5-2-4.5-4.5-4.5s-4.5,2-4.5,4.5v9H87.6v-9c0-2.5-2-4.5-4.5-4.5s-4.5,2-4.5,4.5v9H61.3v-9
		c0-2.5-2-4.5-4.5-4.5s-4.5,2-4.5,4.5v9H34.6v-9c0-2.5-2-4.5-4.5-4.5s-4.5,2-4.5,4.5v9h-8.9C7.5,13.9,0,21.4,0,30.6v92.2
		c0,9.2,7.5,16.7,16.7,16.7h35.8c2.5,0,4.5-2,4.5-4.5c0-2.5-2-4.5-4.5-4.5H16.7c-4.2,0-7.7-3.5-7.7-7.7V30.6c0-4.2,3.5-7.7,7.7-7.7
		h8.9v5.8c0,2.5,2,4.5,4.5,4.5s4.5-2,4.5-4.5v-5.8h17.7v5.8c0,2.5,2,4.5,4.5,4.5s4.5-2,4.5-4.5v-5.8h17.2v5.8c0,2.5,2,4.5,4.5,4.5
		s4.5-2,4.5-4.5v-5.8H105v5.8c0,2.5,2,4.5,4.5,4.5s4.5-2,4.5-4.5v-5.8h9.2c4.2,0,7.7,3.5,7.7,7.7v6.7c0,2.5,2,4.5,4.5,4.5
		s4.5-2,4.5-4.5v-6.7C140,21.4,132.5,13.9,123.3,13.9z"/>
	<path d="M19.3,70.4c-0.9,1.3-1,3-0.3,4.4c0.7,1.4,2.2,2.3,3.8,2.3h14.1c2.3,0,4.2-1.9,4.2-4.2s-1.9-4.2-4.2-4.2h-6l7.3-10.6
		c2.2-3.2,2.6-7.5,0.9-11.1c-1.7-3.5-4.9-5.8-8.8-6.1c-0.3,0-0.6,0-0.9,0c-6.5,0-11.7,5.2-11.7,11.7c0,2.3,1.9,4.2,4.2,4.2
		s4.2-1.9,4.2-4.2c0-1.8,1.4-3.2,3.2-3.2c0.1,0,0.2,0,0.3,0c1,0.1,1.5,0.8,1.8,1.3c0.2,0.3,0.6,1.5-0.2,2.6L19.3,70.4z"/>
	<path d="M85.1,77.1c2.3,0,4.2-1.9,4.2-4.2s-1.9-4.2-4.2-4.2h-1.7V48.1c0-4-3.2-7.2-7.2-7.2h-2.7c-2.3,0-4.2,1.9-4.2,4.2
		s1.9,4.2,4.2,4.2h1.4v19.3h-1.6c-2.3,0-4.2,1.9-4.2,4.2s1.9,4.2,4.2,4.2H85.1z"/>
	<path d="M63.2,54.7H60v-3.2c0-2.3-1.9-4.2-4.2-4.2s-4.2,1.9-4.2,4.2v3.2h-3.2c-2.3,0-4.2,1.9-4.2,4.2s1.9,4.2,4.2,4.2h3.2v3.2
		c0,2.3,1.9,4.2,4.2,4.2s4.2-1.9,4.2-4.2v-3.2h3.2c2.3,0,4.2-1.9,4.2-4.2S65.5,54.7,63.2,54.7z"/>
</g>
</svg>
