<?xml version="1.0" encoding="utf-8"?>
<!-- Generator: Adobe Illustrator 24.2.0, SVG Export Plug-In . SVG Version: 6.00 Build 0)  -->
<svg version="1.0" id="Layer_1" xmlns="http://www.w3.org/2000/svg" xmlns:xlink="http://www.w3.org/1999/xlink" x="0px" y="0px"
	 viewBox="0 0 140 140" enable-background="new 0 0 140 140" xml:space="preserve">
<rect fill="none" width="140" height="140"/>
<path d="M131.2,114.3c4.6-6.1,7.1-13.7,7.1-21.4c0-19.7-16-35.7-35.7-35.7s-35.7,16-35.7,35.7c0,19.7,16,35.7,35.7,35.7
	c2.9,0,5.7-0.3,8.5-1l15.4,11.3c0.8,0.6,1.7,0.9,2.7,0.9c0.8,0,1.6-0.2,2.3-0.6c1.5-0.9,2.4-2.6,2.2-4.4L131.2,114.3z M123.1,110.1
	c-0.8,1-1.2,2.2-1,3.4l1.4,12l-8.8-6.5c-0.8-0.6-1.7-0.9-2.7-0.9c-0.5,0-0.9,0.1-1.4,0.2c-2.6,0.8-5.3,1.2-8.1,1.2
	c-14.7,0-26.7-12-26.7-26.7s12-26.7,26.7-26.7s26.7,12,26.7,26.7C129.3,99.2,127.1,105.3,123.1,110.1z"/>
<path d="M39.8,34.9c-2.5,0-4.5,2-4.5,4.5s2,4.5,4.5,4.5H81c2.5,0,4.5-2,4.5-4.5s-2-4.5-4.5-4.5H39.8z"/>
<path d="M57.9,60.9H39.8c-2.5,0-4.5,2-4.5,4.5s2,4.5,4.5,4.5h18.1c2.5,0,4.5-2,4.5-4.5S60.4,60.9,57.9,60.9z"/>
<path d="M111.8,96.2H93.7c-2.5,0-4.5,2-4.5,4.5s2,4.5,4.5,4.5h18.1c2.5,0,4.5-2,4.5-4.5S114.3,96.2,111.8,96.2z"/>
<path d="M111.8,79.4H93.7c-2.5,0-4.5,2-4.5,4.5s2,4.5,4.5,4.5h18.1c2.5,0,4.5-2,4.5-4.5S114.3,79.4,111.8,79.4z"/>
<path d="M54.5,105c-6.8-1.1-13.2-3.6-19-7.4c-1.3-0.9-3-1-4.4-0.3l-15.7,7.5l7.2-15.9c0.6-1.4,0.5-3.1-0.4-4.4
	c-5.5-8-8.3-17.4-8.3-27.1C13.8,30.8,35.5,9.2,62,9.2c21.2,0,40.2,14.2,46.2,34.5c0.7,2.4,3.2,3.7,5.6,3c2.4-0.7,3.7-3.2,3-5.6
	C109.7,17.1,87.2,0.2,62,0.2C30.5,0.2,4.8,25.9,4.8,57.4c0,10.7,2.9,21,8.5,30L2.1,112.3C1.3,114,1.7,116,3,117.3
	c0.9,0.8,2,1.3,3.2,1.3c0.7,0,1.3-0.1,1.9-0.4l24.5-11.7c6.3,3.8,13.2,6.3,20.4,7.4c2.5,0.4,4.8-1.3,5.1-3.7
	C58.6,107.7,56.9,105.4,54.5,105z"/>
</svg>
