<svg id="Layer_1" data-name="Layer 1" xmlns="http://www.w3.org/2000/svg" viewBox="0 0 41.43 257.7"><path d="M24.4,217.43l-2,0L23.09,4.68a1,1,0,0,1,1-1h0a1,1,0,0,1,1,1Z" transform="translate(0 -3.72)" fill="#2b2b2b"/><ellipse cx="21.66" cy="243.29" rx="8.33" ry="14.41" fill="#fff"/><path d="M41.3,249.94,0,249.72c0-2,.05-4,.19-5.85a67.68,67.68,0,0,1,1.33-9.58c4.37-20.25,16.84-29.49,20.86-32a.5.5,0,0,0,.12-.08c.74-.44,1.16-.65,1.16-.65C44.09,211.5,41.3,249.94,41.3,249.94Z" transform="translate(0 -3.72)" fill="#6a3ad8"/><path d="M25.88,243.31l-25.69.56a67.68,67.68,0,0,1,1.33-9.58c4.37-20.25,16.84-29.49,20.86-32C28.57,217.09,25.88,243.31,25.88,243.31Z" transform="translate(0 -3.72)" fill="#8d67e5"/></svg>