<svg id="Layer_1" data-name="Layer 1" xmlns="http://www.w3.org/2000/svg" viewBox="0 0 145.1 119.02"><path d="M7.31,0a2.09,2.09,0,0,0-.63,1.58A2,2,0,0,1,7.31,0Z" transform="translate(0)" fill="#aecbd5" opacity="0.4"/><path d="M0,4.06,13.58,91.82l97.88,6.77L99.31,34a.56.56,0,0,0-.37-.43L4.61.8a3.69,3.69,0,0,0-3.53.61h0A2.84,2.84,0,0,0,0,4.06Z" transform="translate(0)" fill="#bfcad3"/><path d="M114.68,98.59,16.8,91.82,3,2.44A1.43,1.43,0,0,1,4.89.87L56.13,18.08,99.56,32.66a5.17,5.17,0,0,1,3.44,4l4.18,22.16Z" transform="translate(0)" fill="#fff"/><path d="M103.83,90.26l-52-3.6L33.93,85.42l-9.53-.66A2.09,2.09,0,0,1,22.46,83c-.06-.34-.11-.74-.18-1.18-.77-5-2.45-16-4.35-28.67C15.26,35.37,13.68,29.32,12,17.55c-.33-2.4-.61-4.41-.81-5.94A2.11,2.11,0,0,1,14,9.33L51.16,21.81,82.45,32.32l8.48,2.85,4.17,1.39a2.11,2.11,0,0,1,1.4,1.65l1.09,6.27.54,3.14,7.93,40.17A2.11,2.11,0,0,1,103.83,90.26Z" transform="translate(0)" fill="#cff6ff"/><g opacity="0.2"><path d="M81.87,33,22.28,81.8c-.77-5-2.45-16-4.35-28.67l33-31a.57.57,0,0,1,.65-.22L81.63,32A.57.57,0,0,1,81.87,33Z" transform="translate(0)" fill="#fff"/><path d="M98,47.82,51.8,86.66,33.93,85.42l56.75-50a.56.56,0,0,1,.61-.17l3.81,1.27a2.11,2.11,0,0,1,1.4,1.65l1.58,9.15A.54.54,0,0,1,98,47.82Z" transform="translate(0)" fill="#fff"/></g><path d="M104.08,90.25a1.42,1.42,0,0,0,0-.28L94.51,40.39a2.1,2.1,0,0,0-1.41-1.64L12,11.51a1.93,1.93,0,0,0-.78-.1A2.11,2.11,0,0,1,14,9.33L95.1,36.56a2.11,2.11,0,0,1,1.4,1.65l9.56,49.58A2.1,2.1,0,0,1,104.08,90.25Z" transform="translate(0)" fill="#abb2b7"/><g opacity="0.75"><path d="M80.18,77.54C85.71,94.83,51.9,85.75,51.07,64.2c-.75-19.35-.28-31,6.41-28.86C68.92,38.93,74.4,59.47,80.18,77.54Z" transform="translate(0)" fill="#2d2d2d"/><path d="M86.37,83C83.25,78,78.92,75.86,73.05,70.68l-7.88-1.81L57,65.62c-4.27,2-8.24,1.5-9.42,5.21-.85,2.67.31,7.6,1,10.12a3.26,3.26,0,0,0,2,2L88.77,95c.86.27,1.42-.18,1.28-1C89.66,91.57,88.64,86.68,86.37,83Z" transform="translate(0)" fill="#f2cd57"/><path d="M72.19,54.45a9.42,9.42,0,0,0-.72-2c-3.27-10-7.78-14-13.53-15.81s-9.38,0-7.9,9.81a8.78,8.78,0,0,0,.16,1.12c-.92,0-1.32.92-.62,2.74A7.38,7.38,0,0,0,52.51,54,29.63,29.63,0,0,0,58.2,62c.57,1.13.63,2.23,0,2.79a6.79,6.79,0,0,1-1.24.88C62.46,71.7,69.65,74,73.05,70.68c-.59-.55-1.17-1.12-1.72-1.72a4.59,4.59,0,0,1-1.42-3.44A6.67,6.67,0,0,0,72.42,61c.07-.23.14-.46.19-.7,1.13,0,1.75-.88,1.6-2.32A4.14,4.14,0,0,0,72.19,54.45Z" transform="translate(0)" fill="#eeb6c8"/><path d="M57.43,40.3c1,4.5,1.65,7.42-1.82,8.82S51.67,54.89,55,61.24s5.74,17.61,3.3,21.29c-.46-5.73-12-29.37-9.71-41.78,2.2-12,9.91-4.42,9.91-4.42Z" transform="translate(0)" fill="#2d2d2d"/><path d="M56.79,40.44c2.08,6.26,7.42,6.35,10.71,11.62,5,8,10.17,29.66,10.17,29.66S79,60.52,68.93,44.48C62.44,34.1,53.85,31.56,56.79,40.44Z" transform="translate(0)" fill="#2d2d2d"/></g><path d="M145.1,99.47v4.58L99.51,118.8a4.4,4.4,0,0,1-2.44.09L14.84,98.59l-1.26-6.77,68-22.88a6.49,6.49,0,0,1,4.71.22L108.4,79l.78,1.75a2.91,2.91,0,0,0,1.51,1.48l11,4.64a2.9,2.9,0,0,0,2.58-.17l.56-.34,16.49,7.36A6.28,6.28,0,0,1,145.1,99.47Z" transform="translate(0)" fill="#efefef"/><path d="M145.1,104.05,99.51,118.81a4.5,4.5,0,0,1-2.44.08l-16.85-4.16-1.13-.28L46,106.29l-1-.24L14.84,98.59,81.3,77a8.44,8.44,0,0,1,6.17.37Z" transform="translate(0)" fill="#2b2b2b"/><ellipse cx="84.9" cy="84.9" rx="3.24" ry="1.77" fill="#696969"/><path d="M134,104.19c0,1-1.45,1.76-3.24,1.76s-3.25-.79-3.25-1.76,1.46-1.77,3.25-1.77S134,103.21,134,104.19Z" transform="translate(0)" fill="#696969"/><path d="M101.33,114.62c0,1-1.45,1.77-3.24,1.77s-3.24-.79-3.24-1.77,1.45-1.76,3.24-1.76S101.33,113.65,101.33,114.62Z" transform="translate(0)" fill="#696969"/><path d="M36.43,98.59c0,1-1.45,1.77-3.25,1.77s-3.24-.79-3.24-1.77,1.45-1.76,3.24-1.76S36.43,97.62,36.43,98.59Z" transform="translate(0)" fill="#696969"/><path d="M80.22,114.73l7.81-1.6a1,1,0,0,0,.79-.92,1,1,0,0,0-.69-1l-27.27-8.8a5.9,5.9,0,0,0-3.53,0l-12.26,3.69,1,.24,11.44-3.45a5.43,5.43,0,0,1,3.24,0L88,111.68a.5.5,0,0,1-.06,1l-8.83,1.81Z" transform="translate(0)" fill="#696969"/><path d="M94.19,43.41,12.35,17.65a.58.58,0,0,1-.39-.46c-.31-2.24-.57-4.13-.76-5.58a1.34,1.34,0,0,1,0-.2,1.93,1.93,0,0,1,.78.1L93.1,38.75a2.1,2.1,0,0,1,1.41,1.64l.41,2.38A.57.57,0,0,1,94.19,43.41Z" transform="translate(0)" fill="#fff"/><g opacity="0.75"><path d="M38.29,63.81a13.42,13.42,0,0,1-2.66-1.67h0c-1.41,1.43-4.59.63-7.09-1.8h0a3.88,3.88,0,0,1-2.06.46c-1.43,0-2.18,1.05-1.72,2.67l.51,1.82a2,2,0,0,0,1.28,1.24L41.7,70.38c.55.14.87-.19.72-.73l-.52-1.83A6.92,6.92,0,0,0,38.29,63.81Z" transform="translate(0)" fill="#18b78d"/><path d="M35.63,62.14c-.26-.22-.53-.45-.78-.68-.63-.6-.88-1.4-.53-1.76a3.42,3.42,0,0,0,.92-1.86c.49,0,.74-.41.65-1a1.69,1.69,0,0,0-1-1.45,8.6,8.6,0,0,0-6.24-6.16c-3.64-.92-4.09,1.07-3.46,3.69-.4,0-.56.41-.22,1.15a3.06,3.06,0,0,0,1.36,1.51,15,15,0,0,0,2.19,2.66c.62.6.85,1.36.49,1.71a2.53,2.53,0,0,1-.52.39h0c2.5,2.43,5.68,3.23,7.09,1.8Z" transform="translate(0)" fill="#eeb6c8"/><path d="M25.24,52.92c.65.17,1.12,1.07,1.12,1.07s.05.35.66.81c2.17,1.66,3.61-2.39,4.59-2.33s1.63,0,1.85.8.75,2.38.75,2.38a.93.93,0,0,1,.73-.26l-.75-2.66c-.41-1.48-1.69-4-6-5.07S24.19,49.21,25.24,52.92Z" transform="translate(0)" fill="#424242"/></g><g opacity="0.75"><path d="M20.5,32.34c.38,3.85,14.8,7.89,11.46,1.91-.22-.4-6.72-9.15-8-9.49C20,23.77,20.53,32.7,20.5,32.34Z" transform="translate(0)" fill="#424242"/><path d="M36.82,43.7c-1.4-2-3.23-2.77-5.77-4.77l-3.28-.57-3.45-1.14c-1.71.92-3.36.8-3.76,2.35a3.93,3.93,0,0,0,.25,2.71,1.34,1.34,0,0,0,.86.8l16,4.07c.35.09.58-.11.5-.46A6.8,6.8,0,0,0,36.82,43.7Z" transform="translate(0)" fill="#ea9357"/><path d="M30.33,32.27a3.57,3.57,0,0,0-.35-.82c-1.57-4-3.52-5.58-5.93-6.19s-3.86.22-3,4.21a2.45,2.45,0,0,0,.09.46c-.38,0-.52.41-.19,1.14a3,3,0,0,0,1.29,1.47,12.09,12.09,0,0,0,2.52,3.14c.26.45.31.9.07,1.15a2.34,2.34,0,0,1-.49.39c1.32,4.67,8,6.38,6.73,1.71-.25-.21-.5-.44-.75-.67a1.88,1.88,0,0,1-.66-1.38,2.75,2.75,0,0,0,.93-1.9c0-.1.05-.19.07-.3.46,0,.69-.4.6-1A1.71,1.71,0,0,0,30.33,32.27Z" transform="translate(0)" fill="#eeb6c8"/><path d="M25,27.07c.51,1.83,0,3,2.86,4.53,2.1,1.1,2.82,2,2.62,4.06s1.18.76,1.17.35c-1.06-2.53,1-3-2.19-7.44-3.57-4.9-6.12-3.71-6.12-3.71Z" transform="translate(0)" fill="#424242"/><path d="M25.38,27.29c.39,2.38-2.21,1.07-2.64,2.68a6.84,6.84,0,0,0,.32,4.44S18.66,31,20,26.1C20.83,22.94,24.83,23.93,25.38,27.29Z" transform="translate(0)" fill="#424242"/></g></svg>