<svg id="Layer_1" data-name="Layer 1" xmlns="http://www.w3.org/2000/svg" viewBox="0 0 299.62 266.41"><path d="M216.28,249a1,1,0,0,1-.89-1.45L297.73,83a1,1,0,1,1,1.79.89L217.18,248.48A1,1,0,0,1,216.28,249Z" fill="#ffd026"/><path d="M292,97.7a1,1,0,0,1-.55-.17L256.9,74.59A1,1,0,0,1,258,72.92l34.55,22.94A1,1,0,0,1,292,97.7Z" fill="#ffd026"/><path d="M74.82,242.15a.84.84,0,0,1-.35-.07,1,1,0,0,1-.59-1.28l29.27-78.15.78.09,103,11.82a1,1,0,1,1-.23,2L104.47,164.82,75.75,241.5A1,1,0,0,1,74.82,242.15Z" fill="#ffd026"/><path d="M235.12,211.39H235L94.16,190.47a1,1,0,0,1,.29-2L235.26,209.4a1,1,0,0,1-.14,2Z" fill="#ffd026"/><path d="M178.34,233.32a.93.93,0,0,1-.29,0L87.82,206a1,1,0,1,1,.58-1.92l90.22,27.28a1,1,0,0,1-.28,2Z" fill="#ffd026"/><path d="M135.39,233.8a.91.91,0,0,1-.35-.07,1,1,0,0,1-.59-1.28l13.1-35.27a1,1,0,1,1,1.87.7l-13.09,35.26A1,1,0,0,1,135.39,233.8Z" fill="#ffd026"/><path d="M150,210.83c2.64,11.59-3.38,29.93-5.51,35.83a3.19,3.19,0,0,0,.76,3.34h0a3.22,3.22,0,0,0,4.22.28,33.8,33.8,0,0,0,7.38-8,45.56,45.56,0,0,1,12.43-12.59,21.18,21.18,0,0,0,4.31-3.67,8.88,8.88,0,0,0-2.31-13.36,19.26,19.26,0,0,1-6.13-5.52Z" fill="#e5a5bd"/><path d="M188.36,27.43s-8.45,10.35-17.53,9.17a4,4,0,0,0-3.6,1.38h0a3.91,3.91,0,0,0,0,5l7,8.43Z" fill="#efbfd0"/><path d="M237.58,57.15a27.72,27.72,0,0,1-14,11.82l-19.9,7.59L191.92,81,184.63,77l-8.06-4.48-.42-.23a19.11,19.11,0,0,1-6.55-27.36l12.32-18.22L186.46,20a27.37,27.37,0,0,1,39.1-6.61,40.12,40.12,0,0,1,15.35,24.47A27.72,27.72,0,0,1,237.58,57.15Z" fill="#eeb6c8"/><circle cx="180.43" cy="46.5" r="7.05" fill="#efbfd0"/><path d="M237.58,57.15a27.72,27.72,0,0,1-14,11.82l-19.9,7.59L191.92,81,184.63,77l-6.86-3.52L194,37.36,186.46,20a27.37,27.37,0,0,1,39.1-6.61,40.12,40.12,0,0,1,15.35,24.47A27.72,27.72,0,0,1,237.58,57.15Z" fill="#e5a5bd"/><path d="M183.42,38c-.72,2-2.11,3.41-3.1,3.06s-1.21-2.29-.49-4.33,2.11-3.42,3.1-3.07S184.14,36,183.42,38Z" fill="#2b2b2b"/><path d="M196.81,35.56s3.19-12.87-8.45-8.13C188.36,27.43,195.23,26.31,196.81,35.56Z" fill="#2b2b2b"/><path d="M237.58,57.14a27.71,27.71,0,0,1-14,11.84l-19.9,7.58-5.58-5.89,6.71-12.89s-24.68-9,2.21-24.15Z" fill="#2b2b2b"/><path d="M213.94,51.57c7.12,12.45-16,21.29-19.82,12.56C187.13,48.1,209.64,44.05,213.94,51.57Z" fill="#eeb6c8"/><path d="M200.65,61.59c-.1-.09-2.43-2.19-1.86-4.39.4-1.56,2.13-2.69,5.14-3.35l.21,1c-2.57.57-4.08,1.47-4.38,2.62-.42,1.61,1.53,3.37,1.55,3.39Z" fill="#c45f98"/><path d="M243,22.82c3.29,6.17,16.92,35.5-1.56,38.53C239.55,68,233,70.15,227.22,64c-10.67-11.36-11-23.44-23.34-28.44,0,0-3.34-7.56,0-12.71-21.81-1.71-34.06-20,5.91-17.43C231.79,6.85,239.47,16.24,243,22.82Z" fill="#2b2b2b"/><path d="M238.43,20.09c-12-16.42-31.21-20.33-44-17C189,4.5,185.21,7.21,184.87,10c-.27,2.25,1.68,4.63,5.51,6.72l-.95,1.75c-5.9-3.21-6.81-6.51-6.54-8.71.45-3.72,4.57-6.93,11-8.6,13.44-3.49,33.61.58,46.14,17.76Z" fill="#2b2b2b"/><path d="M194.24,121" fill="none" stroke="#e5e5e5" stroke-miterlimit="10"/><polygon points="247.57 121.99 254.68 163.86 238.01 163.86 230.78 126.72 247.57 121.99" fill="#e5a5bd"/><path d="M249.11,122S243,136.36,228,138.5a26.8,26.8,0,0,1-5.51.21l-19.83-37.5,8.51-10L219.85,81l3.39,4.75Z" fill="#284e8d"/><path d="M107.18,137.09c-16.63-.48-34.55,4.39-34.55,4.39s-21.43,19.9-41.55,55.1l13.34,8.09c8.95-11.44,35.37-10.8,38.26-38.92,0,0,13.36-4.44,24.5-1.89Z" fill="#eeb6c8"/><path d="M127.28,140.07l-20.1-3s-6.28,15.48,0,26.77l58.54,5.06-28.63-32.31Z" fill="#345995"/><path d="M220.82,90.85l-19.11,74.39-36,3.68-18.4-20.77-10.23-11.54-9.81,3.46c-9.41-18.08,21.3-21.37,21.3-21.37l37.2-47.53a12,12,0,0,1,1.35-1.5A12.93,12.93,0,0,1,202.68,68l11.13,6.7A14.36,14.36,0,0,1,220.82,90.85Z" fill="#fff"/><path d="M220.82,90.85l-19.11,74.39-36,3.68-18.4-20.77,29.25-51.94,10.56-26.54A12.93,12.93,0,0,1,202.68,68l11.13,6.7A14.36,14.36,0,0,1,220.82,90.85Z" fill="#cacaca"/><path d="M31.08,196.58c-6.34,10-23.57,18.75-29.24,21.41A3.2,3.2,0,0,0,0,220.89H0a3.21,3.21,0,0,0,2.78,3.18,34.08,34.08,0,0,0,10.91-.44,45.54,45.54,0,0,1,17.68-.11A20.94,20.94,0,0,0,37,224a8.88,8.88,0,0,0,7.82-11.07,19.16,19.16,0,0,1-.42-8.24Z" fill="#eeb6c8"/><path d="M276.82,192c-7.4-44.35-80.58-48.53-108-35.81,0,0-98.42-29.8-100.37,12.51Z" fill="#de315e"/><path d="M68.43,168.71l206.25,19.11a5.76,5.76,0,0,1,4.59,8.38h0a5.75,5.75,0,0,1-5.69,3.09L67.46,178.78a5.06,5.06,0,0,1-4.55-5h0A5.06,5.06,0,0,1,68.43,168.71Z" fill="#de315e"/><path d="M279.27,196.2a5.78,5.78,0,0,1-5.7,3.1l-1.27-.13a52.37,52.37,0,0,1-4.38,5.22A55.28,55.28,0,0,1,220.34,221l-130-18a28.79,28.79,0,0,1-23-18.53,24.69,24.69,0,0,1-.87-2.81,27.92,27.92,0,0,1-.66-3.3,5.05,5.05,0,0,1,2.64-9.6C70.38,126.4,168.8,156.2,168.8,156.2c21.78-10.09,72.35-9.54,96,13.27A40.17,40.17,0,0,1,276,188.09,5.77,5.77,0,0,1,279.27,196.2Z" fill="#e2e2e2"/><path d="M269.07,180.64a5.76,5.76,0,0,1-5.69,3.09l-1.28-.12a53.76,53.76,0,0,1-4.38,5.22,55.28,55.28,0,0,1-47.58,16.59l-130-18a28.58,28.58,0,0,1-13.7-5.79,27.92,27.92,0,0,1-.66-3.3,5.05,5.05,0,0,1,2.64-9.6C70.38,126.4,168.8,156.2,168.8,156.2c21.78-10.09,72.35-9.54,96,13.27.35,1,.67,2,1,3.07A5.76,5.76,0,0,1,269.07,180.64Z" fill="#fffdfe"/><polygon points="169.25 105.92 155.77 158.93 171.69 158.93 187.74 110.11 169.25 105.92" fill="#eeb6c8"/><path d="M202.68,68l-8.44,53c-9.86,1.74-16.93,1-21.93-.7a24.67,24.67,0,0,1-3.12-1.27c-6.15-3-8-7.24-8-7.24l11.26-38.31a16.66,16.66,0,0,1,25.94-8.68Z" fill="#345995"/><path d="M178,164.2,173.6,166l-8.75-2.53c-7.6,6.88-14,6.37-14,6.37l-3,3.33a10.8,10.8,0,0,1-5.66,7h-4.84c5.17-3.67,4-11.28,4-11.28-5.17,3.38-13.16,8-13.16,8l-5-3.17,5-3.67L127,168.2l-1.07-1.67,11.08-7.6a64,64,0,0,0,13.58-1.24h0a54.58,54.58,0,0,0,5.92-1.49h16.07C172.17,160.2,178,164.2,178,164.2Z" fill="#eeb6c8"/><path d="M150.59,157.69l-10.77,4L128.19,170,140,158.92A66.52,66.52,0,0,0,150.59,157.69Z" fill="#e5a5bd"/><path d="M211.54,45.07,233.4,7.7s10.81,5.79,9.58,15.12L215.29,48.4Z" fill="#ededed"/><circle cx="204.04" cy="57.78" r="15.24" fill="#cacaca"/><circle cx="204.04" cy="57.78" r="11.25" fill="#ddd"/><circle cx="204.04" cy="57.78" r="8.91" fill="#afafaf"/><path d="M161.76,266.41a1,1,0,0,1-.9-1.45L262.74,61.57a1,1,0,0,1,1.78.9L162.65,265.86A1,1,0,0,1,161.76,266.41Z" fill="#ffd026"/><path d="M273,135.72a.92.92,0,0,1-.36-.07l-38.27-15a1,1,0,0,1,.73-1.87l38.27,15a1,1,0,0,1-.37,1.93Z" fill="#ffd026"/></svg>