<?xml version="1.0" encoding="utf-8"?>
<!-- Generator: Adobe Illustrator 24.2.0, SVG Export Plug-In . SVG Version: 6.00 Build 0)  -->
<svg version="1.1" id="Layer_1" xmlns="http://www.w3.org/2000/svg" xmlns:xlink="http://www.w3.org/1999/xlink" x="0px" y="0px"
	 viewBox="0 0 320 212.8" style="enable-background:new 0 0 320 212.8;" xml:space="preserve">
<style type="text/css">
	.st0{fill:#7539FF;}
	.st1{clip-path:url(#SVGID_2_);}
	.st2{fill:#222238;}
	.st3{fill:#2F314E;}
	.st4{fill:#EED9C5;}
	.st5{fill:#DBB89B;}
	.st6{fill:#F6F6F6;}
	.st7{fill:#71BDC5;}
	.st8{fill:#559A9E;}
	.st9{fill:#BBDEFB;}
	.st10{fill:#88BFE2;}
	.st11{fill:#EFBB18;}
	.st12{fill:#EFB19E;}
	.st13{fill:#050505;}
	.st14{fill:#F9C0AA;}
	.st15{fill:#FFFFFF;}
	.st16{fill:#262626;}
	.st17{fill:#E3E4E5;}
	.st18{fill:#164353;}
	.st19{fill:#FFD125;}
	.st20{fill:#FFE799;}
	.st21{fill:#FFD85A;}
	.st22{fill:#D14E4E;}
	.st23{fill:#231F20;}
	.st24{fill:#145B6B;}
	.st25{fill:#208191;}
	.st26{fill:#FFC24E;}
	.st27{fill:#E56361;}
	.st28{fill:#F5F4F9;}
</style>
<rect y="-0.5" class="st0" width="320" height="213.3"/>
<g>
	<defs>
		<rect id="SVGID_1_" y="-0.5" width="320" height="213.3"/>
	</defs>
	<clipPath id="SVGID_2_">
		<use xlink:href="#SVGID_1_"  style="overflow:visible;"/>
	</clipPath>
	<g class="st1">
		<path class="st2" d="M201-11.4c0,0,24,14.1,6.6,25.8c-17.4,11.7-64.2,18.7-63,40.8c1.1,22,21.5,10.1,14.5,35.9s-59,27.9-56.1,64.2
			c2.9,36.3-65.5,35.9-45.5,67.3s285.9,2.1,285.9,2.1L333.7-5.1L201-11.4z"/>
		<path class="st3" d="M293.8,88.9c11.2-0.2,23.9-2.9,35.8-7.4V55.8c-0.7,0.3-1.4,0.5-2.1,0.6c-20.6,4.5-100.3,6.9-97.8,30.3
			c2.5,23.4,20.2,21.2,10.3,36.4c-9.9,15.1-55.7,27.6-68.8,34.4c-13.1,6.7,1.9,10.1,1.7,16.8c-0.2,6.7-70,36.4-70,36.4l48.7,5
			c0,0,42-11.1,64.2-21.2c22.2-10.2-13.9-28.1,6.1-33.8s69.3-17.5,70.9-29.4C294.4,119.4,246.2,89.8,293.8,88.9z"/>
		<g>
			<path class="st4" d="M298.3,27.2c0,0.4,0,0.8-0.1,1.1c-0.6,4.9-4.7,8.6-9.7,8.6c-0.7,0-1.4-0.1-2.1-0.2c-1.1-0.2-2.1-0.6-3-1.2
				c-0.7-0.4-1.4-1-1.9-1.6c-0.1-0.1-0.1-0.1-0.2-0.2c0,0,0,0,0,0c-0.3-0.3-0.6-0.7-0.8-1c-0.4-0.6-0.8-1.3-1-2
				c-0.2-0.4-0.3-0.9-0.4-1.4c-0.2-0.7-0.2-1.4-0.2-2.1c0-0.4,0-0.8,0.1-1.2c0.6-4.8,4.7-8.5,9.7-8.5c1.3,0,2.6,0.3,3.8,0.8
				c0.6,0.2,1.1,0.5,1.6,0.9c0.6,0.4,1.1,0.8,1.6,1.3c0.6,0.6,1.1,1.3,1.5,2c0.3,0.6,0.6,1.2,0.8,1.8
				C298.1,25.2,298.3,26.2,298.3,27.2z"/>
			<path class="st5" d="M298.3,27.2c0,0.4,0,0.8-0.1,1.1c-0.3,0.2-0.6,0.3-0.7,0.3c-0.4,0,0.1-0.6-0.8-0.1c-0.9,0.5-1.5,1.1-2.1,1.8
				c-0.5,0.6,0.1,0.8-0.7,1.2c-0.8,0.3-2.3,2.1-3,3c-0.7,0.9-1.7,1-1.8,0.7c-0.1-0.1-1.5,0.7-2.6,1.5c-1.1-0.2-2.1-0.6-3-1.2
				c-0.7-0.4-1.4-1-1.9-1.6c-0.1-0.1-0.1-0.1-0.2-0.2c0,0,0,0,0,0c-0.3-0.3-0.6-0.7-0.8-1c-0.4-0.6-0.8-1.3-1-2
				c-0.2-0.4-0.3-0.9-0.4-1.4c-0.2-0.7-0.2-1.4-0.2-2.1c0-0.4,0-0.8,0.1-1.2c0.2,0,0.4-0.1,0.6,0c0.6,0.2,1.8-1.5,3.6-2.2
				c1.8-0.7,0.6,0.3,1.5,0.2c0.9,0,2.8-1.6,3.5-2.1c0.7-0.5,0.2-1.1,0.7-1.4c0.4-0.2,2.3-1.5,3.5-2.3c0.6,0.2,1.1,0.5,1.6,0.9
				c0.6,0.4,1.1,0.8,1.6,1.3c0.6,0.6,1.1,1.3,1.5,2c0.3,0.6,0.6,1.2,0.8,1.8C298.1,25.2,298.3,26.2,298.3,27.2z"/>
			<path class="st6" d="M297.1,22.5c-0.6,0.6-1.2,1.2-1.7,1.4c-1.2,0.4-3.3,1.8-4.3,2.8c-1.1,1.1-2.5,1.8-2.9,1.9
				c-0.4,0.1,2.7-2.6,3.6-3.5c0.9-0.9,2.9-1.9,2.7-2.3c-0.1-0.4-1,0.3-0.9-0.3c0-0.3,1-1.2,2-2c-0.5-0.5-1-1-1.6-1.3
				c-0.4,0.5-1,1-1.6,1.4c-1.4,0.9-1.4,1.5-0.8,1.2c0.6-0.2,0.8,0.1,0.2,0.5c-0.6,0.4-3.3,3-5.3,3.6c-2,0.6-2.4,0.8-3.6,1.8
				c-1.2,0.9-0.9,0.2-1.2,0c-0.2-0.2-1.5,1-2.7,1.8c0.1,0.5,0.2,0.9,0.4,1.4c0.8-0.4,2-1.1,2.6-1.4c0.7-0.4,0.2,0.2,0.6,0.4
				c0.4,0.1,3.3-2,3.6-2c0.3,0,1.8-0.6,1.4-0.8c-0.3-0.3,0.2-0.7,0.7-1c0.8-0.5,2.1-1.7,2.3-1.5c0.2,0.1-1,1.6-1.7,2.2
				c-0.7,0.6-1.3,1.5-2,2.1c-0.7,0.5-3.6,1.9-4.3,2.4c-0.5,0.4-1.4,1.3-2.2,1.7c0.3,0.4,0.5,0.7,0.8,1c0.2-0.4,2.7-1.9,2.5-2.2
				c-0.2-0.4,2.2-1.5,2.5-1.4c0.3,0.2-1.9,1.3-1.8,1.7c0,0.4-0.2,0.8-1.5,1.5c-0.8,0.4-1.2,0.7-1.4,0.7c0.6,0.6,1.2,1.1,1.9,1.6
				c0.9-0.5,1.9-1.1,2.3-1.5c0.9-0.8,1.8-1.3,1.9-1.1c0.1,0.2,0.1,0.4,0.6,0.3c0.6-0.1,4.1-2.5,4-3.2c-0.1-0.6-1,0.1,0.2-1
				c1.2-1.1,2-1.6,2.3-2.2c0.3-0.6,1-1.5,1.2-1.1c0.1,0.2,1-0.5,1.7-1.4C297.6,23.6,297.4,23,297.1,22.5z M292,28.5
				c-0.4,0.4-1.1,1.6-1.8,1.9c-0.8,0.2-3.3,2.1-4.3,2.2c-1,0.1,0.4-0.8,1.4-1.4c1-0.5,1.7-1.3,2.6-1.8
				C290.8,28.8,292.8,27.5,292,28.5z M292.9,26.4c0-0.4,2-1.7,2.2-1.6C295.5,25,292.9,26.8,292.9,26.4z"/>
		</g>
		<g>
			<path class="st4" d="M111.6,152.6c-21.8,7.9-38.5,17-37.3,20.4c1.2,3.4,19.9-0.3,41.8-8.2c21.8-7.9,38.5-17,37.3-20.4
				C152.1,141.1,133.4,144.7,111.6,152.6z M114.9,161.7c-14.9,5.4-27.7,7.9-28.5,5.6c-0.8-2.3,10.6-8.6,25.5-13.9
				c14.9-5.4,27.7-7.9,28.5-5.6C141.2,150.1,129.8,156.3,114.9,161.7z"/>
			<path class="st7" d="M120.4,177c-6.6,2.4-13.8,0.9-18.9-3.2c-2.6-2.1-4.7-5-6-8.4c0-0.1-0.1-0.3-0.1-0.4c-0.2-0.5-0.3-1-0.4-1.5
				c-2.4-9.5,2.8-19.5,12.2-22.9c0.8-0.3,1.6-0.5,2.4-0.7c4.7-1,9.5-0.2,13.6,2c0.9,0.5,1.8,1.1,2.6,1.7c2.8,2.2,5,5.1,6.3,8.6
				C135.7,162.2,130.5,173.4,120.4,177z"/>
			<path class="st8" d="M125.4,157.5c1,1.5,3,5.5,0.7,6.5c-2.3,0.9-4.5,2.7-3.7,3.1c0.8,0.4,3.8,2.3-0.9,3.7
				c-4.7,1.4-5.1,2.4-2.8,2.4s3.4-0.3,2.6,1.1c-0.6,1.1-5.7,2.9-10.4,3.6c-3.4-0.5-6.6-2-9.3-4.1c1.2-1.4,4.3-1.5,5.9-1.6
				c0.8-0.1,4.7,0,3.3-1.7c-0.7-1-3.2-0.3-4.2-0.5c-0.7-0.2-1.4-0.9-1.2-1.6c0.1-0.3,0.3-0.5,0.5-0.7c1.7-1.7,4.5-2.8,6.8-3.3
				c1.3-0.3,3.4-1,2.3-2.7c-1-1.6-1.9-2.5-0.3-4.1c0.9-0.9,2.3-1.5,3.3-2.2c1-0.7,3.3-1.6,3.7-3c0.5-1.9-1.9-2.2-2.2-3.8
				c-0.3-1.4,2.4-1.6,3.2-2c1.3-0.7,2.4-1.7,3.3-2.9c1.4,1.1,2.6,2.4,3.7,3.8c-0.6,0.8-1.4,1.7-2.3,2.2c-2.3,1.2,2.3,2.3,2.7,3.4
				C130.3,154,124.4,156.1,125.4,157.5z"/>
			<path class="st8" d="M115.1,148.3c0,1.6-8.4,3.1-9.2,4.7c-0.8,1.6,5.8,2.3,1.9,4.5c-3.9,2.2-0.4,4.2-2.8,5.9
				c-1.9,1.4-7.3,1.5-9.5,1.5c-0.2-0.5-0.3-1-0.4-1.5c2.5-0.1,5.7-1,5.8-2.2c0.1-1.5-2.7-3.2,0-4.5c2.7-1.2,4.2-1.9,1.9-2.7
				c-2.3-0.8-2.7-3.1-0.1-3.2c2.6-0.1,5.3-2.6,6.8-3.7c1.5-1.1-0.4-1.3-1.2-2.5s8.1-3,6.9-4.3c-0.6-0.7-3.1-0.7-5.3-0.5
				c4.7-1,9.5-0.2,13.6,2c-2.2,1.7-9.1,2.7-10.7,3.6C110.4,146.8,115.1,146.7,115.1,148.3z"/>
			<path class="st4" d="M135.9,145.3l0.6,1.7c2.2-0.1,3.6,0.1,3.9,0.8c0.8,2.3-10.6,8.6-25.5,13.9c-14.9,5.4-27.7,7.9-28.5,5.6
				c-0.2-0.7,0.6-1.7,2.2-2.9l-0.6-1.7c-9,4.5-14.4,8.5-13.7,10.4c1.2,3.4,19.9-0.3,41.8-8.2c21.8-7.9,38.5-17,37.3-20.4
				C152.6,142.5,145.8,142.9,135.9,145.3z"/>
		</g>
		<g>
			<path class="st9" d="M373.3,221.1c0,21.7-64.3,39.3-143.6,39.3c-62.9,0-116.4-11.1-135.8-26.6c-5-4-7.8-8.3-7.8-12.8
				c0-10.9,16.1-20.7,42-27.8c3.5-1,7.2-1.9,11.1-2.7c0,0,0,0,0,0c24.7-5.5,56.2-8.8,90.4-8.8c6.6,0,13.1,0.1,19.5,0.4
				c4.5,0.2,8.8,0.4,13.1,0.7c14.6,0.9,28.4,2.5,40.9,4.5C345.2,194.2,373.3,206.8,373.3,221.1z"/>
			<g>
				<path class="st10" d="M249.2,182.1c0,0.2-0.1,0.4-0.2,0.6c-1,2.2-3,0.6-3.9,1.9c-0.4,0.5,0.2,1.3,0.8,1.6
					c0.6,0.3,1.4,0.3,1.9,0.7c1,0.9,0.2,2.8-1.1,3.3c-1.3,0.5-2.7,0.2-4.1,0.3c-0.3,0-0.6,0.1-0.7,0.3c-0.2,0.3,0,0.6,0,0.9
					c0,0.6-0.7,1-1.4,1c-0.6,0-1.2-0.2-1.8-0.3c-1-0.2-2,0.1-2.8,0.7c0.1,0.4,0.5,0.6,0.8,0.8c0.4,0.2,0.5,0.6,0.4,1
					c-2.9,1.4-3.7-1.7-6.2-2c-3.3-0.5-4.9,2.2-5.1,4.9c-0.8,0.4-1.7-0.1-2.5-0.4c-0.8-0.4-2-0.5-2.4,0.3c-0.3,0.7,0.4,1.5,0.9,2.1
					s1,1.7,0.3,2.1c-0.3,0.2-0.7,0.2-1.1,0.2c-2.7-0.2-5.3-0.4-8-0.7c-0.2,0-0.5,0-0.6-0.2c-0.1-0.1-0.1-0.3-0.1-0.5
					c0-0.8-0.6-1.4-1.3-1.7c-0.7-0.3-1.5-0.3-2.2-0.3c-0.2,0.7-0.6,1.2-1.2,1.7c-1-1.3-0.2-5.8-3-5.8c-2.1,0-5.9,0.1-10.2,2.2
					c-1.4,0.7-2.5,2.1-3.9,2.6c-1.7,0.6-2.8-0.3-4.3-0.2c-1.2,0-2.4,1.2-3.6,0.2c-0.9-0.7,0.2-2.5-0.9-2.9c-0.3-0.1-0.7,0-1,0.1
					c0,0.4,0,0.8-0.2,1.2c-0.8-0.1-3-1.2-3.7-0.8c-0.6,0.4-0.7,3,0,3.2c-3.4-1-5.8-4.7-5.4-8.2c0.8,0.2,1.8-0.2,2.2-0.9
					c1.4,1.3,3.4,1.9,5.3,1.7c0.4-0.8-0.6-1.6-1.4-1.7c-0.9-0.1-1.8,0-2.5-0.6c-0.5-0.4-0.6-1-1-1.6c-1.1-1.7-3.4-1.7-5.4-1.4
					c-1.3,0.2-2.6,0.4-3.7,1.2c-1,0.8-1.6,2.3-1,3.4c-1.2-0.1-2.4-0.1-3.5,0.4c-1.1,0.5-1.9,1.8-1.5,2.9c-1,1.1-2.7,0.1-3.8-0.9
					c-1.1-1-2.7-2.1-3.8-1.1c0.3,0.5,0.6,1,0.9,1.5c-1.1,0.8-3,0.1-3.1-1.3c0-0.4,0-0.7-0.1-1.1c-0.2-1-1.2-1.5-2.2-1.6
					c-1-0.1-1.9,0.2-2.9,0.4c-1.9,0.3-3.5,0.3-4.8-0.6c24.7-5.5,56.2-8.8,90.4-8.8C236.3,181.8,242.8,181.9,249.2,182.1z"/>
				<path class="st10" d="M292.9,191.6c-0.5,0.9-0.5,2.1,0,3c-0.8-0.6-1.9,0.5-1.7,1.5c0.2,1,1.1,1.6,2,2.1c2.9,1.7,5.7,3.4,8.5,5.1
					c-3.8,2-8.4-0.7-11.3-3.8c-1.2-1.3-2.3-2.7-3.8-3.6c-1.5-0.9-3.5-1.3-5-0.5c-0.1,1-0.2,2.1-0.3,3.1c-0.8,0.1-1.6,0.2-2.5,0.2
					c0.4,0.9,0.6,1.9,0.6,2.9c-2.2,0.3-4.5,0.3-6.7,0.2c-1.1-1.5-1.8-3.2-2-5c-1.1,0-2.1,0-3.2-0.1c0,1.5-0.8,2.9-2,3.7
					c-1.9-1.7-4-3.1-6.4-4.2c-0.6,0.6-0.2,1.8,0.6,2c-1.1-0.1-2.3-0.2-3.2-0.9c-0.9-0.7-1.2-2.3-0.3-3c1.6-1.1,3.4,1.4,5.3,1.3
					c1.3-0.1,2.2-1.7,1.6-2.9c-2.5-0.5-4.9-1.3-7.1-2.6c1,0.2,1.4-1.3,0.9-2.2c-0.5-0.9-1.4-1.5-1.6-2.5c1.7-0.2,3.4-0.4,5-0.6
					c0.6-0.1,1.2-0.2,1.4-0.7c0.2-0.4,0-0.9,0.2-1.3c14.6,0.9,28.4,2.5,40.9,4.5C300.8,190.4,296.8,192.2,292.9,191.6z"/>
				<path class="st10" d="M138.6,210.6c-3.2-1.1-7.1,1.5-7.2,4.9c0,0.5,0,1-0.2,1.5c-0.2,0.5-0.7,0.8-1.2,1
					c-2.6,1.4-5.5,2.1-8.4,2.2c-0.6,0-1.1,0-1.7,0.2c-0.7,0.3-1.3,0.8-1.9,1.4c-4.7,4.3-11.7,4.6-18.1,4.3c-0.5,0-1,0-1.5,0.2
					c-1.2,0.7-0.8,2.4-0.9,3.8c-0.2,1.9-1.9,3.4-3.7,3.8c-5-4-7.8-8.3-7.8-12.8c0-10.9,16.1-20.7,42-27.8c0.2,0,0.4,0.1,0.6,0.1
					c1.2,0.3,3.7,0.5,3.9,1.7c0.3,1.8-1.7,2.2-2.9,1.6c-0.5-0.2-1-0.5-1.5-0.6c-0.5-0.1-1.2,0.1-1.4,0.6c-0.4,0.8,0.7,1.7,1.3,2
					c-1.1,0-2.2-0.1-3.2,0c2.1,1.2,4.8,1.2,7.2,1.5c-0.1,0.3,0,0.9,0.4,1c-0.5,0.3-0.9,0.6-1.4,0.8c0.6,0.8,0.5,2.1-0.3,2.7
					c0.7,0.7,1.7,1.2,2.7,1.4c-0.2-1.5,0.6-3.3,2.1-3.4c1.5-0.2,2.5,2.3,1.2,2.9c0.7,0.3,1.4,0.6,2.2,1
					C139,208,139,209.3,138.6,210.6z"/>
				<path class="st10" d="M143,200.5c-1.5,0.4-3.3-0.7-3.6-2.3c1.1-0.2,2.4-0.7,2.6-1.8c0-0.2,0-0.3,0.1-0.5
					c0.1-0.3,0.5-0.4,0.9-0.3c0.9,0.1,1.7,0.9,2,1.8s0.4,1.9,0.4,2.8c-0.7,0-1.4,0-2.1,0L143,200.5z"/>
				<path class="st10" d="M149.9,200.5c-0.5,0.1-0.8-0.7-0.5-1.1s1-0.4,1.5-0.2c0.7,0.2,1.5,0.6,1.6,1.3c0.1,0.5-0.1,1-0.1,1.5
					c0,0.5,0.2,1.1,0.7,1.2c-0.5,0-1,0-1.6,0.1c0.2-0.5-0.3-1.1-0.8-1.3c-0.5-0.2-1.1-0.1-1.6-0.1c-0.1-0.4,0.3-0.8,0.7-0.7
					L149.9,200.5z"/>
			</g>
		</g>
		<g>
			<circle class="st6" cx="244.3" cy="40.5" r="1"/>
			<circle class="st6" cx="313.6" cy="63.6" r="1"/>
			<path class="st6" d="M301.7,110.1c0,0.5-0.4,1-1,1s-1-0.4-1-1c0-0.5,0.4-1,1-1S301.7,109.6,301.7,110.1z"/>
			<path class="st6" d="M238.2,115.2c0,0.5-0.4,1-1,1s-1-0.4-1-1c0-0.5,0.4-1,1-1S238.2,114.7,238.2,115.2z"/>
			<path class="st6" d="M289.5,158.6c0,0.5-0.4,1-1,1c-0.5,0-1-0.4-1-1c0-0.5,0.4-1,1-1C289,157.6,289.5,158,289.5,158.6z"/>
			<path class="st6" d="M192.9,176.5c0,0.5-0.4,1-1,1s-1-0.4-1-1s0.4-1,1-1S192.9,176,192.9,176.5z"/>
			<path class="st6" d="M294,98.1c0,0.1-0.1,0.2-0.2,0.2c-0.1,0-0.2-0.1-0.2-0.2c0-0.1,0.1-0.2,0.2-0.2C293.9,97.9,294,98,294,98.1z
				"/>
			<path class="st6" d="M268.2,55.7c0,0.1-0.1,0.2-0.2,0.2c-0.1,0-0.2-0.1-0.2-0.2c0-0.1,0.1-0.2,0.2-0.2
				C268.1,55.4,268.2,55.5,268.2,55.7z"/>
			<path class="st6" d="M301.9,35.7c0,0.1-0.1,0.2-0.2,0.2c-0.1,0-0.2-0.1-0.2-0.2c0-0.1,0.1-0.2,0.2-0.2
				C301.8,35.5,301.9,35.6,301.9,35.7z"/>
			<path class="st6" d="M218.1,134.7c0,0.1-0.1,0.2-0.2,0.2s-0.2-0.1-0.2-0.2c0-0.1,0.1-0.2,0.2-0.2S218.1,134.6,218.1,134.7z"/>
			<path class="st6" d="M309.6,160.5c0,0.1-0.1,0.2-0.2,0.2c-0.1,0-0.2-0.1-0.2-0.2c0-0.1,0.1-0.2,0.2-0.2
				C309.5,160.3,309.6,160.4,309.6,160.5z"/>
			<path class="st6" d="M271.2,173.3c0,0.1-0.1,0.2-0.2,0.2c-0.1,0-0.2-0.1-0.2-0.2c0-0.1,0.1-0.2,0.2-0.2
				C271.1,173.1,271.2,173.2,271.2,173.3z"/>
			<path class="st6" d="M199,114.2c0,0.1-0.1,0.2-0.2,0.2c-0.1,0-0.2-0.1-0.2-0.2c0-0.1,0.1-0.2,0.2-0.2
				C198.9,114,199,114.1,199,114.2z"/>
			<path class="st6" d="M194.7,154c0,0.1-0.1,0.2-0.2,0.2c-0.1,0-0.2-0.1-0.2-0.2c0-0.1,0.1-0.2,0.2-0.2
				C194.6,153.8,194.7,153.9,194.7,154z"/>
			<path class="st6" d="M246.5,130c0,0.1-0.1,0.2-0.2,0.2c-0.1,0-0.2-0.1-0.2-0.2c0-0.1,0.1-0.2,0.2-0.2
				C246.4,129.8,246.5,129.9,246.5,130z"/>
			<path class="st6" d="M285.7,143.2c0,0.1-0.1,0.2-0.2,0.2c-0.1,0-0.2-0.1-0.2-0.2c0-0.1,0.1-0.2,0.2-0.2
				C285.6,143,285.7,143.1,285.7,143.2z"/>
			<path class="st6" d="M217.9,166.4c0,0.1-0.1,0.2-0.2,0.2c-0.1,0-0.2-0.1-0.2-0.2c0-0.1,0.1-0.2,0.2-0.2
				C217.8,166.2,217.9,166.3,217.9,166.4z"/>
			<path class="st6" d="M154.6,137.9c0,0.1-0.1,0.2-0.2,0.2c-0.1,0-0.2-0.1-0.2-0.2c0-0.1,0.1-0.2,0.2-0.2
				C154.5,137.7,154.6,137.8,154.6,137.9z"/>
			<path class="st6" d="M176.2,145.1c0,0.1-0.1,0.2-0.2,0.2c-0.1,0-0.2-0.1-0.2-0.2c0-0.1,0.1-0.2,0.2-0.2
				C176.1,144.9,176.2,145,176.2,145.1z"/>
			<path class="st6" d="M108.4,182.8c0,0.1-0.1,0.2-0.2,0.2c-0.1,0-0.2-0.1-0.2-0.2c0-0.1,0.1-0.2,0.2-0.2
				C108.3,182.6,108.4,182.7,108.4,182.8z"/>
			<path class="st6" d="M127.2,184.4c0,0.1-0.1,0.2-0.2,0.2c-0.1,0-0.2-0.1-0.2-0.2c0-0.1,0.1-0.2,0.2-0.2
				C127.1,184.1,127.2,184.2,127.2,184.4z"/>
			<path class="st6" d="M142.6,126.7c0,0.1-0.1,0.2-0.2,0.2c-0.1,0-0.2-0.1-0.2-0.2c0-0.1,0.1-0.2,0.2-0.2
				C142.5,126.5,142.6,126.6,142.6,126.7z"/>
			<path class="st6" d="M283.8,106.1c0,0.3-0.2,0.5-0.5,0.5c-0.3,0-0.5-0.2-0.5-0.5c0-0.3,0.2-0.5,0.5-0.5
				C283.5,105.6,283.8,105.8,283.8,106.1z"/>
			<path class="st6" d="M246.8,95.5c0,0.3-0.2,0.5-0.5,0.5s-0.5-0.2-0.5-0.5s0.2-0.5,0.5-0.5S246.8,95.3,246.8,95.5z"/>
			<path class="st6" d="M298.8,76.5c0,0.3-0.2,0.5-0.5,0.5c-0.3,0-0.5-0.2-0.5-0.5s0.2-0.5,0.5-0.5C298.6,76,298.8,76.3,298.8,76.5z
				"/>
			<path class="st6" d="M309.4,136.3c0,0.3-0.2,0.5-0.5,0.5c-0.3,0-0.5-0.2-0.5-0.5s0.2-0.5,0.5-0.5
				C309.2,135.8,309.4,136,309.4,136.3z"/>
			<path class="st6" d="M250.3,160c0,0.3-0.2,0.5-0.5,0.5s-0.5-0.2-0.5-0.5s0.2-0.5,0.5-0.5S250.3,159.8,250.3,160z"/>
			<path class="st6" d="M222.4,150.3c0,0.3-0.2,0.5-0.5,0.5s-0.5-0.2-0.5-0.5s0.2-0.5,0.5-0.5S222.4,150.1,222.4,150.3z"/>
			<path class="st6" d="M302.6,179.9c0,0.3-0.2,0.5-0.5,0.5c-0.3,0-0.5-0.2-0.5-0.5s0.2-0.5,0.5-0.5
				C302.4,179.4,302.6,179.6,302.6,179.9z"/>
			<path class="st6" d="M195.7,136.8c0,0.3-0.2,0.5-0.5,0.5s-0.5-0.2-0.5-0.5s0.2-0.5,0.5-0.5S195.7,136.5,195.7,136.8z"/>
			<path class="st6" d="M193.9,81.9c0,0.5-0.4,1-1,1s-1-0.4-1-1c0-0.5,0.4-1,1-1S193.9,81.3,193.9,81.9z"/>
			<circle class="st6" cx="123.2" cy="131.5" r="1"/>
			<path class="st6" d="M168.9,54c0,0.5-0.4,1-1,1s-1-0.4-1-1c0-0.5,0.4-1,1-1S168.9,53.4,168.9,54z"/>
			<path class="st6" d="M186.2,69.9c0,0.1-0.1,0.2-0.2,0.2c-0.1,0-0.2-0.1-0.2-0.2c0-0.1,0.1-0.2,0.2-0.2
				C186.1,69.7,186.2,69.8,186.2,69.9z"/>
			<path class="st6" d="M159.9,61.8c0,0.1-0.1,0.2-0.2,0.2c-0.1,0-0.2-0.1-0.2-0.2c0-0.1,0.1-0.2,0.2-0.2
				C159.8,61.6,159.9,61.7,159.9,61.8z"/>
			<path class="st6" d="M207.2,39.9c0,0.1-0.1,0.2-0.2,0.2c-0.1,0-0.2-0.1-0.2-0.2s0.1-0.2,0.2-0.2
				C207.1,39.6,207.2,39.7,207.2,39.9z"/>
			<path class="st6" d="M219.7,12.7c0,0.1-0.1,0.2-0.2,0.2c-0.1,0-0.2-0.1-0.2-0.2c0-0.1,0.1-0.2,0.2-0.2
				C219.6,12.4,219.7,12.5,219.7,12.7z"/>
			<path class="st6" d="M263.4,33.8c0,0.1-0.1,0.2-0.2,0.2c-0.1,0-0.2-0.1-0.2-0.2c0-0.1,0.1-0.2,0.2-0.2
				C263.3,33.6,263.4,33.7,263.4,33.8z"/>
			<path class="st6" d="M187.8,35.5c0,0.1-0.1,0.2-0.2,0.2c-0.1,0-0.2-0.1-0.2-0.2s0.1-0.2,0.2-0.2
				C187.7,35.3,187.8,35.4,187.8,35.5z"/>
			<path class="st6" d="M266.7,12.4c0,0.1-0.1,0.2-0.2,0.2c-0.1,0-0.2-0.1-0.2-0.2c0-0.1,0.1-0.2,0.2-0.2
				C266.6,12.2,266.7,12.3,266.7,12.4z"/>
			<path class="st6" d="M249.6,22.7c0,0.1-0.1,0.2-0.2,0.2c-0.1,0-0.2-0.1-0.2-0.2s0.1-0.2,0.2-0.2
				C249.5,22.5,249.6,22.6,249.6,22.7z"/>
			<path class="st6" d="M288.8,12.2c0,0.1-0.1,0.2-0.2,0.2c-0.1,0-0.2-0.1-0.2-0.2c0-0.1,0.1-0.2,0.2-0.2
				C288.7,12,288.8,12.1,288.8,12.2z"/>
			<path class="st6" d="M176,77.9c0,0.3-0.2,0.5-0.5,0.5s-0.5-0.2-0.5-0.5c0-0.3,0.2-0.5,0.5-0.5S176,77.6,176,77.9z"/>
			<path class="st6" d="M186.5,51.6c0,0.3-0.2,0.5-0.5,0.5c-0.3,0-0.5-0.2-0.5-0.5c0-0.3,0.2-0.5,0.5-0.5
				C186.3,51.1,186.5,51.4,186.5,51.6z"/>
			<path class="st6" d="M216.9,24.8c0,0.3-0.2,0.5-0.5,0.5s-0.5-0.2-0.5-0.5c0-0.3,0.2-0.5,0.5-0.5S216.9,24.5,216.9,24.8z"/>
			<path class="st6" d="M156.3,127.5c0,0.3-0.2,0.5-0.5,0.5c-0.3,0-0.5-0.2-0.5-0.5s0.2-0.5,0.5-0.5
				C156.1,127,156.3,127.2,156.3,127.5z"/>
			<circle class="st6" cx="96" cy="191.9" r="0.5"/>
			<path class="st6" d="M148.4,162.8c0,0.3-0.2,0.5-0.5,0.5s-0.5-0.2-0.5-0.5s0.2-0.5,0.5-0.5S148.4,162.5,148.4,162.8z"/>
			<path class="st6" d="M298.3,49.6c0,0.3-0.2,0.5-0.5,0.5c-0.3,0-0.5-0.2-0.5-0.5c0-0.3,0.2-0.5,0.5-0.5
				C298.1,49.1,298.3,49.3,298.3,49.6z"/>
			<path class="st6" d="M251.4,10.6c0,0.3-0.2,0.5-0.5,0.5s-0.5-0.2-0.5-0.5c0-0.3,0.2-0.5,0.5-0.5S251.4,10.3,251.4,10.6z"/>
			<path class="st6" d="M311.5,9.6c0,0.3-0.2,0.5-0.5,0.5c-0.3,0-0.5-0.2-0.5-0.5c0-0.3,0.2-0.5,0.5-0.5
				C311.3,9.1,311.5,9.3,311.5,9.6z"/>
			<path class="st6" d="M252.4,52.1c0,0.3-0.2,0.5-0.5,0.5s-0.5-0.2-0.5-0.5s0.2-0.5,0.5-0.5S252.4,51.9,252.4,52.1z"/>
		</g>
		<g>
			<path class="st11" d="M266.8,81c2.3-1.8,16.2,3.7,16.2,3.7c0.5-3.7,0.8-13.2,0.8-13.2l2.3-0.8c0,0,2,15.9-0.1,18.1
				c-2.2,2.2-17.7,0-17.7,0L266.8,81z"/>
			<path class="st12" d="M286.8,189.7c-0.3-0.3-0.6-0.6-1-1.2c-0.8-1.2-2.3-1-2.3-1c-0.5,0.4-0.5,2.2-0.5,2.7h-0.6
				c-0.2-0.5-0.9-2.9-0.7-3.8c0.2-0.7,0.7-2.4,0.9-3.2c0.1-0.2,0.1-0.4,0.1-0.6c-0.6-2.7-2.9-11.9-6.7-19.3c-3.1-5.9-4-8.2-4.6-13.5
				c-0.6-5.3-5.4-18.5-5.4-18.5s6.8-18.4,9.6-6.9c2.8,11.4,3.2,25.4,3.6,28.2c0.5,2.8,4.7,22.4,7.2,30.6c0.5,1.6,2.8,4.7,3.7,5.4
				c0,0,0,0,0,0c0.1,0,0.7,0.2,1.2,0.6c0.2,0.1,0.3,0.3,0.4,0.5H286.8z"/>
			<path class="st13" d="M286.8,190.1c-0.5,0-1.5-1-2.1-1.6c-0.6-0.5-1-0.5-1-0.5c-0.5,0.4-0.6,1.6-0.7,2h-0.6
				c-0.2-0.5-0.9-2.9-0.7-3.8c0.2-0.7,0.6-1.7,0.7-3.1c1.8-1,3.4,2.5,5.7,4.4c1.2,1,1.9,0.8,1.9,0.8s0,0,0,0
				c0.1,0.1,0.8,0.1,1.4,0.4c1,0.6,1,0.9,1.1,1.1H286.8z"/>
			<path class="st14" d="M254.3,127.9c-0.7,11.6,1.5,14.5,2.3,19.3c0.6,3.6-1.2,8.9,0.7,14.7c1.2,3.9,4,20.4,4,20.4v6.8h4.6
				c0,0-1.8-7.6-1.8-10.4c0-12.3-1.7-26.9-1.4-32.5c0.2-5.4,2.1-16.2,2.1-16.2L254.3,127.9z"/>
			<path class="st0" d="M279.4,145.5c0,0-4.1,1.9-12.3,2.3c-3.1,0.2-5.4,0.2-7.2,0.1h0c-0.6-2-2.7-8.3-3.5-13.5
				c0,0-1.4,7.2-0.4,13.1c-0.4-0.1-0.6-0.1-0.6-0.1c-5.7-27.9,4.8-37.4,4.8-37.4c6.8-3.1,13.3-0.6,13.3-0.6S277.9,119.2,279.4,145.5
				z"/>
			<path class="st15" d="M266.8,81c0,0-2,1.8-6.1,2.8c-4.1,1-7-0.5-9.4,1.8c-3.7,3.5,2.5,11.5,5.2,15.3c1,1.4,3.1,5.4,3.6,9.2
				c0,0,7.2,2.1,13.3-0.6l0.5-8.8C273.9,100.6,277.8,88.8,266.8,81z"/>
			<g>
				<path class="st16" d="M254,67.5c0,0-1.2-1.3-3.2-1.1c-2.1,0.2-2.2,4.6-1.1,6.7c1.1,2.1-2.6,3.7-2.3,5.5c0.3,1.8,2.6,3.3,0.7,3.9
					c-1.9,0.6,0.2,2.9,2.6,1.5c2.4-1.4-0.8-4.7,1.2-5c2-0.3,3.2-5.4,2.2-7.9C253,68.7,254,67.5,254,67.5z"/>
				<path class="st14" d="M256.2,66.8c0,0,7.9-2.6,9.5,2.9c1.6,5.6,0.2,10.9-4,10.8C256.4,80.3,250.1,69.9,256.2,66.8z"/>
				<path class="st12" d="M260.2,74.6c0,0.3,0.3,0.6,0.7,0.7c0.4,0,0.8-0.2,0.8-0.5c0-0.3-0.3-0.6-0.7-0.7
					C260.6,74.1,260.2,74.3,260.2,74.6z"/>
				<path class="st13" d="M262.4,72.8c0,0-0.5-0.4-0.7-0.4c-0.3,0.1-0.5,0.5-0.5,0.5l-0.6-0.2l0.6,0c0,0,0.2-0.4,0.6-0.4
					C262,72.3,262.4,72.8,262.4,72.8z"/>
				<path class="st13" d="M264.8,72.7c0,0.4,0.2,0.6,0.5,0.6c0.2,0,0.4-0.3,0.4-0.7s-0.2-0.6-0.5-0.6
					C264.9,72,264.7,72.3,264.8,72.7z"/>
				<path class="st13" d="M264.6,72.6c0,0,0.2-0.8,0.5-0.8s0.8,0.5,0.8,0.5l0.5-0.4l-0.5,0.2c0,0-0.4-0.6-0.8-0.5
					C264.6,71.7,264.6,72.6,264.6,72.6z"/>
				<g>
					<path class="st13" d="M260.8,71.2c0.1,0,0.1,0,0.1-0.1c0.3-0.5,1-0.5,1-0.5c0.1,0,0.2-0.1,0.2-0.1c0-0.1-0.1-0.2-0.1-0.2
						c0,0-0.8-0.1-1.3,0.6C260.6,71,260.6,71.1,260.8,71.2C260.7,71.2,260.8,71.2,260.8,71.2z"/>
				</g>
				<g>
					<path class="st13" d="M264.5,70.4C264.5,70.4,264.5,70.3,264.5,70.4c0.6-0.4,1.1-0.2,1.2-0.2c0.1,0,0.2,0,0.2-0.1
						c0-0.1,0-0.2-0.1-0.2c0,0-0.8-0.3-1.4,0.2c-0.1,0.1-0.1,0.2,0,0.2C264.4,70.3,264.4,70.4,264.5,70.4z"/>
				</g>
				<path class="st12" d="M264.6,73.7c0,0,1.4,0,1.3,0.5c-0.1,0.5-1,1.1-1,1.1S264.3,74.3,264.6,73.7z"/>
				<path class="st16" d="M259.4,69.7c0,0-1.8,2.3-1.7,5.3c0,0-1.3-1.6-2-0.2c-0.7,1.4,2.1,3.5,2.1,3.5s-0.1,0.9-1.7,0.1
					c-1.1-0.6-4-3.3-3.3-5.6C253.4,70.4,255.7,68,259.4,69.7z"/>
				<path class="st12" d="M257.8,77c0.6,1.6,2.9,4.1,5.3,3.3c0,0-0.3,2,0.7,2.8v3.2l-6.3-3.3c0.5-4.9-0.7-5.5-0.7-5.5
					C257.6,78,257.8,77,257.8,77z"/>
				<path class="st16" d="M261.9,68c0,0-2.9,4.1-5.9,5.5c-3,1.4-5.3,0.9-3.4-5c0,0,0.8-2,2.7-2.8c5.6-2.4,7.3-0.4,7.3-0.4
					c3.7-0.9,5.6,3.3,3.4,6.1c0,0,0.1-1.3-1-2C264,68.8,263.1,69.4,261.9,68z"/>
			</g>
			<path class="st13" d="M260.6,190.1c-0.1-1,0.1-2.7,0.1-3.5c0-1,0.6-3.6,0.6-3.6c0.2,1.8,0.7,3,0.9,3.9c0.2,0.9,2,0.7,2.4,0
				c0.4-0.7,0-3.9,0-3.9c0.8,1.3,0.6,3.1,1.3,3.8c0.5,0.4,0.6,2.5,0.5,3.3H260.6z"/>
			<g>
				<path class="st17" d="M271.7,70.1l-5.8,1.3c-0.2,0-0.3,0.5-0.2,1s0.4,0.9,0.6,0.9l5.8-1.1L271.7,70.1z"/>
				<path class="st15" d="M279.6,68l-8.3,1.8c-0.3,0.1-0.4,0.7-0.3,1.3c0.1,0.7,0.5,1.2,0.8,1.1l8.4-1.6L279.6,68z"/>
				<path class="st17" d="M288.5,65.9l-10.7,2.4c-0.4,0.1-0.5,0.8-0.3,1.6c0.2,0.8,0.6,1.4,1,1.3l10.8-2.1L288.5,65.9z"/>
				<path class="st15" d="M293.8,68.5c-0.5,0.1-1.1-0.7-1.4-1.7c-0.2-1.1,0-2,0.6-2.1c0.5-0.1,1.2,0.7,1.4,1.7
					C294.6,67.5,294.4,68.4,293.8,68.5z"/>
				<path class="st15" d="M293,64.7l-7,1.5c-0.5,0.1-0.7,1-0.5,2c0.2,1,0.8,1.7,1.2,1.6l7-1.3L293,64.7z"/>
				<path class="st18" d="M293.8,68.3c-0.5,0.1-1-0.6-1.2-1.5c-0.2-0.9,0-1.8,0.5-1.9c0.5-0.1,1,0.6,1.2,1.5
					C294.5,67.3,294.3,68.2,293.8,68.3z"/>
			</g>
			<path class="st19" d="M264.6,81.4c0,0,6.1,4.8,5.2,15.7l-0.2,14.5l3.1,11.9c0,0,3.9-2.4,4.2-4l-3.1-10.4c0,0,1.9-16.2,0.7-19.5
				c-1.7-4.8-7.8-8.5-7.8-8.5L264.6,81.4z"/>
			<path class="st19" d="M256.2,83.8c0,0-8.9-0.1-5.6,7.9c3.4,8,8.4,12.1,8.8,17.3c0,0-3.8,6.7-4.7,10.5l12.3,5.2l2.7-12.4
				c0,0,1.1-11.7,0-15.9C268.6,92.2,258.5,84.4,256.2,83.8z"/>
			<path class="st15" d="M256.5,82.8l1.3-1.5c0,0,4.4,1.4,6.4,5.5l-2.4-1.6l-2.5,1C259.2,86.2,256.8,84.3,256.5,82.8z"/>
			<path class="st14" d="M281.4,69.4l0.6,1.4c0,0,1.4,0.7,1.7,0.8c0.4,0.1,2.3-0.1,2.3-0.8c0.1-0.7-0.1-1-0.1-1l-1.4,0.3
				c0,0-0.4-0.2-1.3,0.1C282.4,70.6,282.1,69.5,281.4,69.4z"/>
			<path class="st20" d="M255.7,82.4c0,0,12.2,4.3,14,13.9c0,0-5.9-5.4-10.3-6.5l0.5-3l-6.3-0.2c0,0,0.3-1.4,0-2.4
				C253.6,84.1,255.4,83.3,255.7,82.4z"/>
			<path class="st14" d="M270.6,75l-1-1.6c0,0,0.3,0,0.5-0.6c0.2-0.6,0.1-2.1,0.5-2.5c0.4-0.4,1-1.1,1.2-0.6c0,0,0.7-0.6,1,0.1
				c0,0-0.3,0.3-0.2,0.5c0.1,0.2,0.5-0.5,1.1-0.7c0.5-0.1,0.4,0.3,0.4,0.3s-0.3,0.4-0.6,1.1c-0.3,0.7,0.4-0.2,0.6-0.3
				c0.2-0.1,0.7-0.4,0.7-0.4s0.5-0.1,0,0.4c-0.5,0.4-0.9,1.5-1,2.3c-0.1,0.8-0.1,1-0.8,2.1C272.4,76.1,270.6,75,270.6,75z"/>
			<path class="st20" d="M263.2,81.4c0,0,1.3-1,6.3,2.4l-0.8,1.6l4.2,3.5c0,0-1.5,6-3,7.7C269.8,96.5,270.7,84.4,263.2,81.4z"/>
			<path class="st15" d="M263.2,81.4c0,0,2.2,0.6,3.2,3.4h-2l-0.2,2C264.1,86.8,262.5,83.1,263.2,81.4z"/>
			<path class="st21" d="M272.6,75.4c0,0-0.4,17.6-2,19.5c-1.6,1.9-16.7,0.3-18.9-1.8c-1.2-1.2-1.5-3.1-1.4-4.7
				c0.1-1.4,0.6-2.5,1.4-2.6c3.4-0.3,15.4,4.3,15.4,4.3l3.2-15.3C270.4,74.7,271.3,73.9,272.6,75.4z"/>
		</g>
		<g>
			<path class="st11" d="M149.5,86.8c0,0-6.1,4.1-8.9,11.2s0,8.3,1.9,7.3c1.9-1,11.9-10.7,11.9-10.7L149.5,86.8z"/>
			<path class="st12" d="M195.5,109.8c0.1-0.2,0.2-0.4,0.2-0.4s-0.4-0.2-0.8,0.2c0,0,0,0,0,0c0.1-0.2,0.2-0.4,0.2-0.4
				s-0.4-0.2-0.8,0.2c-0.2,0.3,0,0.5-0.5,0.8c-0.1-0.1-0.2-0.2-0.3-0.3c-0.1-0.1-0.3-0.2-0.4-0.4v0.2c0,0-0.1-0.1-0.1-0.1
				c-0.1-0.1-0.3-0.2-0.4-0.4v0.6c-0.1-0.1-0.2-0.2-0.3-0.3c-0.1-0.1-0.3-0.2-0.4-0.4v2.2c0.2,0,0.4,0,0.7,0v0.1c0.2,0,0.3,0,0.5,0
				v0.2c0.2,0,0.5,0.1,0.7,0.1c1.7,0,2.4-2.2,2.4-2.2S195.9,109.5,195.5,109.8z M194.8,109.8c-0.1,0.2,0,0.4-0.3,0.6
				C194.6,110.2,194.7,110,194.8,109.8z M195.1,110.6c0.1-0.1,0.2-0.2,0.2-0.3C195.3,110.4,195.2,110.5,195.1,110.6z"/>
			<path class="st13" d="M185.1,190.1v-1.3c0-1.5-1.4-4.1-1.4-5.1c0-1-3.8,0.8-3.8,0.8s0,1.5-1.3,2.8c-1,1-1,2.4-0.9,2.7H185.1z"/>
			<path class="st13" d="M159.4,190.1l0.7-0.3l0.3,0.3h2.5c0.2-0.7,1.1-3.4,0.3-5.3c-0.9-2.2-3.6-1.6-3.6-1.6s-1.8,2.6-2.9,3
				c-1.1,0.5-5.2,2.1-5.6,3.2c-0.1,0.3,0.1,0.5,0,0.7H159.4z"/>
			<path class="st0" d="M167.8,108.8c-1.4,20.4-5.3,47.2-9.4,75.4c0,0,0.8,1.3,5.5,0.6l14.3-59.8c0.1-0.2,0.2-0.3,0.4-0.3
				c0.2,0,0.4,0.2,0.4,0.4c0.2,4.5,1.6,18.3,0.8,59.9c0,0,2.4,1.3,5,0c0,0,9.2-61.5,7.1-73.3L167.8,108.8z"/>
			<path class="st19" d="M192,111.1c0,1.8-3.7,8.8-15.2,7c-6.5-1-9.5-4.2-9.5-4.2s-20.7-17.5-19-25.3c0.6-2.7,7.4-6.8,12.6-6.5
				c7.5,0.4,13.3,3.5,13.3,3.5C179.7,87.6,191.9,104.1,192,111.1z"/>
			<path class="st22" d="M155.3,86.2c0,0,0.5,2.8,2.3,5c0,0,1.8,12.1,1.4,25.5l0.9,1.7l2.6-1.9c0,0-1.8-17.6-3.6-25.3
				c0,0,1.1-3.7,2.7-4.8c1.6-1.1-1-1.5-1-1.5L155.3,86.2z"/>
			<path class="st15" d="M156.9,82.1c-1.7,0.7-3.2,3.4-1.8,7c0,0,0.2-1.5,1-1.5c0.8,0,1.3,1,1.3,1l2.4-2
				C159.8,86.6,159.9,80.8,156.9,82.1z"/>
			<g>
				<path class="st14" d="M158.9,76.6c1.3,7-6,9.2-8.2,6.9c-0.7-0.7-1.5-2.1-2.1-3.7c-0.1-0.4-0.3-0.7-0.4-1.1
					c-0.8-2.5-1-5.2,0.4-6.1C153.2,69.3,157.6,69.6,158.9,76.6z"/>
				<path class="st16" d="M147.6,74.4c0,0,2.3-3,7.2-2.9c0,0,2,3.6,2.7,5.3c0,0,1.9,0.2,1.1,4.1c0,0,2.2-0.7,1.2-6.8
					c-0.8-5.2-4-4.2-4-4.2s-1.6-2.8-5-1.4c-3.4,1.4-4.6,3-5.6,1.6C144,68.6,143.1,74.8,147.6,74.4z"/>
				<path class="st13" d="M149.7,77.6c0.1,0.4,0,0.7-0.2,0.8c-0.2,0.1-0.5-0.2-0.6-0.6c-0.1-0.4,0-0.7,0.2-0.8
					C149.3,76.9,149.6,77.2,149.7,77.6z"/>
				<path class="st12" d="M150.5,78c0,0-0.4,1.7-1.1,1.6c-0.7,0,0.2,1.4,1.9,0.4C151.3,80,151.5,79,150.5,78z"/>
				<path class="st12" d="M154.9,77.1c0.2,0.3,0,0.7-0.3,0.9c-0.3,0.2-0.8,0.2-0.9-0.1c-0.2-0.3,0-0.7,0.3-0.9
					C154.3,76.8,154.7,76.9,154.9,77.1z"/>
				<path class="st12" d="M149.3,79.2c0,0.3-0.3,0.6-0.7,0.6c-0.1-0.4-0.3-0.7-0.4-1.1c0.1,0,0.2-0.1,0.3-0.1
					C149,78.6,149.3,78.9,149.3,79.2z"/>
				<g>
					<path class="st23" d="M150.9,76.3c-0.1,0-0.1,0-0.2-0.1c-0.1-0.1-0.1-0.3,0-0.4c0,0,0.7-0.7,1.5-0.8c0,0,0,0,0,0
						c0.2,0,0.3,0.1,0.3,0.3c0,0.2-0.1,0.3-0.3,0.3c-0.6,0-1.1,0.5-1.1,0.5C151.1,76.2,151,76.3,150.9,76.3z"/>
				</g>
				<g>
					<path class="st23" d="M147.9,76.3c-0.2,0-0.3-0.1-0.3-0.3c0-0.5,0.6-0.8,1.1-0.9c0.2,0,0.3,0.1,0.3,0.3s-0.1,0.3-0.3,0.3
						c-0.3,0-0.6,0.2-0.6,0.3C148.2,76.2,148.1,76.3,147.9,76.3C147.9,76.3,147.9,76.3,147.9,76.3z"/>
				</g>
				<path class="st14" d="M157.4,76.8c0,0,0.8-1.6,2-1.1c1.2,0.5,0.2,3.4-1,3.6C157.3,79.6,157.4,76.8,157.4,76.8z"/>
				<path class="st13" d="M151.8,77.1c0,0,0.2-0.9,1.3-0.4C153.1,76.7,152.2,76.5,151.8,77.1z"/>
			</g>
			<path class="st12" d="M159.6,79.6c0,0,0.3,1.3,3.1,3.4c0,0-1.6,3.8-5.2,4.6c0,0-1.5-2.5-3-3.3c0,0,3-0.6,4.3-4.4
				C158.7,79.8,159.3,79.9,159.6,79.6z"/>
			<path class="st15" d="M160.7,81.2c0,0,0.8,2,0,3.6c-0.8,1.7-2.1,2.4-2.1,2.4s1.5,1,1.9,1.9c0,0,3-2.8,3.1-5.1
				C163.6,81.6,160.7,81.2,160.7,81.2z"/>
			<path class="st21" d="M174.2,85.5c-4.6,0.2-1,7.6,1,9.1C177.3,96.1,195,97,195,97l-4.3,8.2c0,0-0.9,3.6,2.9,3.6
				c0,0,9.1-11.1,9.5-15.1C203.6,89.8,186.4,85,174.2,85.5z"/>
			<path class="st14" d="M190.7,106.1c0,0-1,0.6-0.8,2.7s2,3.2,3.7,3.6c1.6,0.4,2.8-1.6,2.8-1.6s-0.3-0.3-0.8,0
				c-0.4,0.3,0.1,0.8-1.5,0.7c0,0-0.2-0.8-0.4-1c-0.6-0.6-0.5-2.5-0.5-2.5L190.7,106.1z"/>
			<path class="st19" d="M143.1,85.8c0,0-0.6,11.6,0,13.8s0.9,6.4-2,5.9c-2.9-0.5-3.4-7-2.5-10.6c0.9-3.5,2.3-9.5,2.3-9.5
				L143.1,85.8z"/>
			<g>
				<path class="st12" d="M140.7,86.7c0,0,0.3,2,2.2,0.6c0,0,0.7,0,1-0.7c0.2-0.4,0.6-1.7,0.9-2.2c0.5-0.7,0.5-1.1,0.2-1.1
					c-0.7-0.1-1.4-0.1-1.7-0.3C142.7,82.7,141,84.2,140.7,86.7z"/>
				<g>
					<path class="st24" d="M145,80.1l-2.4,5.2c0,0-0.1,0.6,0.4,0.8c0.4,0.2,0.7-0.1,1-0.6c0.5-0.9,2-4.1,2-4.1L145,80.1z"/>
					<g>
						<path class="st24" d="M146.1,76.2l-0.7,0.2l0.1,0.3c-0.4,0.6-0.6,1.7-0.3,2.8c0.3,1.2,0.9,2.1,1.5,2.4l0.1,0.3l0.7-0.2
							c0.9-0.2,1.3-1.7,0.9-3.3C148,77.1,147,76,146.1,76.2z"/>
						<path class="st25" d="M147.7,78.9c0.4,1.6,0,3.1-0.9,3.3c-0.9,0.2-1.9-0.9-2.3-2.5c-0.4-1.6,0-3.1,0.9-3.3
							C146.3,76.1,147.3,77.3,147.7,78.9z"/>
						<path class="st15" d="M147.2,79c0.3,1.1,0,2.2-0.7,2.3c-0.6,0.1-1.3-0.6-1.6-1.8c-0.3-1.1,0-2.2,0.7-2.3
							C146.2,77.1,147,77.9,147.2,79z"/>
					</g>
				</g>
				<path class="st14" d="M144.4,81.7c0,0-0.2,1.2,0,2c0.2,0.8-0.2,1-0.2,1c-0.1,0-0.4-0.5-0.4-0.5s0.4,0.7,0,1.1
					c-0.1,0.1-0.6-0.6-0.6-0.6s0.3,0.6,0.1,0.8s-0.5-0.3-0.5-0.3s0.1,0.4-0.1,0.4c-0.1,0-0.8-0.3-0.9-0.5c-0.1-0.1-0.4,0-0.4,0
					l-0.4,0.1c0.6-1.8,1.2-2.1,1.2-2.1s0.2-0.5,0.5-0.4c0,0,0.3-0.8,0.8-0.6C143.5,82.1,144.1,80.9,144.4,81.7z"/>
			</g>
		</g>
		<g>
			<path class="st0" d="M205.3,98.5c-1.1,12.7-5,61.6-4.3,88h6.2c0.3-2.9,0.7-5.8,1.1-8.7c0.8-6.7,1.7-13.4,2.6-20.2
				c1-7.6,2.1-15.1,3.3-22.6c0.9-5.4,1.6-10.9,3.1-16.1c0.2-0.6,0.3-1.2,0.6-1.8c0.5-1.1,0.9-1.1,2.2-1.1c1.5,0,1.9,3.5,2.2,4.6
				c0.6,2.6,1.1,5.2,1.6,7.9c1.3,7.3,2.4,14.6,3.4,22c1,7.4,2,14.8,2.9,22.3c0.5,4.3,1.1,8.7,1.6,13c0,0.2,0.1,0.5,0.1,0.7h6.2
				c0.7-26.4-3.2-75.4-4.3-88H205.3z"/>
			<path class="st22" d="M234.6,89.5c-0.1,1.2-0.1,2.5-0.2,3.8c-0.1,2.6-0.3,5.2-0.3,8c0,0-7.4-1.7-14.1-1.7
				c-7.3,0-14.8,1.7-14.8,1.7c-0.1-2.9-0.3-5.6-0.4-8.2c-0.1-2.1-0.3-4.1-0.4-6c-1.6-22.9-3.6-30.9-0.1-33.1
				c1.5-0.9,15.4,1.2,15.4,1.2s13.3-0.5,15-0.8C237.9,54,235.8,68.5,234.6,89.5z"/>
			<path class="st12" d="M223.3,46.8l-3.4,2.6c-1.1,0.4-2.4,0.6-4.1,0.3c0,0,0.5,2.6,0.1,6l3.5,2c0,0,2.2-1.1,3.6-1.7
				C223,55.9,222.5,49.9,223.3,46.8z"/>
			<g>
				<path class="st16" d="M214.9,47.9c0,0-3.2-3-3-7.5c0.3-4.5,2.4-5.1,3.3-5.3c0,0,0.8-1.8,4.6-1.6c2.6,0.1,5,1.4,6.3,4
					c1.4,2.8,0.5,9.3-1.8,10.4H214.9z"/>
				<path class="st14" d="M213.7,43.6c0,0-1.7-1.7-1.9,0.3c-0.2,2.3,1.8,3.2,2.2,2.5C214.4,45.6,213.7,43.6,213.7,43.6z"/>
				<path class="st14" d="M225.4,43.7c0,0,1.7-1.7,1.9,0.3c0.2,2.3-1.8,3.2-2.2,2.5C224.6,45.7,225.4,43.7,225.4,43.7z"/>
				<path class="st14" d="M219.3,51.8c-3.7,0-5.8-2.4-5.8-9.7c0-3.8,1.9-6.1,6.1-6.1c4.2,0,5.9,2.3,5.9,6.1
					C225.5,49.9,223.2,51.8,219.3,51.8z"/>
				<path class="st12" d="M224.3,44.7c0.1,0.4-0.3,0.7-0.7,0.8c-0.5,0.1-0.9-0.2-1-0.5c-0.1-0.4,0.3-0.7,0.7-0.8
					C223.8,44.1,224.2,44.3,224.3,44.7z"/>
				<path class="st12" d="M216.6,44.9c0,0.4-0.4,0.7-0.9,0.6c-0.5,0-0.8-0.4-0.8-0.7c0-0.4,0.4-0.7,0.9-0.6
					C216.3,44.2,216.7,44.5,216.6,44.9z"/>
				<g>
					<path class="st13" d="M222.6,40.9c0,0-0.1,0-0.1-0.1c-0.5-0.5-1.4-0.5-1.4-0.5c-0.1,0-0.2-0.1-0.2-0.2c0-0.1,0.1-0.2,0.2-0.2
						c0,0,1.1,0,1.7,0.6c0.1,0.1,0.1,0.2,0,0.3C222.7,40.9,222.6,40.9,222.6,40.9z"/>
				</g>
				<g>
					<path class="st13" d="M215.6,40.9c0,0-0.1,0-0.1-0.1c-0.1-0.1-0.1-0.2,0-0.3c0.6-0.7,1.7-0.6,1.7-0.6c0.1,0,0.2,0.1,0.2,0.2
						c0,0.1-0.1,0.2-0.2,0.2c0,0-0.9,0-1.4,0.5C215.7,40.9,215.6,40.9,215.6,40.9z"/>
				</g>
				<path class="st13" d="M222.3,42.9c0,0.5-0.2,0.8-0.5,0.8c-0.3,0-0.5-0.4-0.5-0.8c0-0.5,0.2-0.8,0.5-0.8
					C222.1,42,222.3,42.4,222.3,42.9z"/>
				<path class="st13" d="M217.3,42.9c0,0.5-0.2,0.8-0.5,0.8c-0.3,0-0.5-0.4-0.5-0.8c0-0.5,0.2-0.8,0.5-0.8
					C217.1,42,217.3,42.4,217.3,42.9z"/>
				<path class="st12" d="M219.4,42.9c0.3-0.2,1.2,3,0.3,3.2C218.7,46.3,219,43.1,219.4,42.9z"/>
				<path class="st16" d="M215.8,37.6c0,0,3.3,2.9,9,2.5l0.6,4.6c0,0,3.3-9.6-6.4-9.6c-9.7,0-5.3,9.4-5.3,9.4S213.2,40.6,215.8,37.6
					z"/>
			</g>
			<path class="st26" d="M224.9,55c-0.3,1.7-3.1,4.1-3.1,4.1l-1.3-1.8l-1.2,0.8l-1.4-0.8l-1.6,1.4c0,0,0,0,0,0s-2.5-3.2-2.3-4.1
				c0.3-0.9,1.9-1.4,1.9-1.4c0.1,1.9,1.8,2.2,1.8,2.2l1.4,1.7l1.3-1.3c1.6,0,2.2-2.3,2.2-2.3C224.3,54,224.9,55,224.9,55z"/>
			<path class="st11" d="M217.9,55.8l1.5,2.3l-1.4-0.8l-1.6,1.4C216.4,58.5,217.4,56.6,217.9,55.8z"/>
			<path class="st11" d="M221.8,59.1l-1.3-1.8l-1.2,0.8l1.5-1.9C220.8,56.1,222.4,57.7,221.8,59.1z"/>
			<path class="st27" d="M230.9,84.4l3.9-19.9l-5.2-5l-6.1,4.6l-4.1-3.8l-5.2,3l-4.3-4.5l-6.2,4.7l3.4,8.5l3.6,10.8
				c-2.9,0.9-4.9,2.4-6.1,4.5c0.1,1.9,0.3,3.9,0.4,6l3.7,4l5.6-8.3l6.5,7.5l6.1-7.5l3.7,8.3l3.9-3.8c0.1-1.3,0.1-2.6,0.2-3.8
				c-1.5-1.4-3.7-3.4-6.4-5.1L230.9,84.4z"/>
			<g>
				<path class="st11" d="M204.4,54.2c0,0,0.8,10.2-1.6,13.7c-2.4,3.6-6.9,16.6-10.4,15.5c-3.5-1.1-4.7-5.8,0-12.6
					C197.1,64.1,201.1,53.8,204.4,54.2z"/>
				<path class="st26" d="M189.9,76.7c1.1-3.5,4.7-5.3,5.6-4.8c0.9,0.5,2.7,3.3,1.5,7.3c-1.2,4.1-4.5,5.8-6.6,3.2
					C188.3,79.9,189.9,76.7,189.9,76.7z"/>
				<path class="st14" d="M196,70.9c0,0-2,3-2,5.2c0,0-0.4,0.3-0.7,0.6c-0.6,0.6-1.4,2.7-0.3,3.8c1,1.1,2.5-1,2.5-1
					c0.9-0.1,2.9-2.5,2.9-4.2C198.3,73.7,196,70.9,196,70.9z"/>
				<path class="st11" d="M235.2,54.8c0,0-1.7,10.1,0.8,13.7s6.9,16.6,10.4,15.5c3.5-1.1,4.7-5.8,0-12.6
					C241.6,64.6,238.4,54.4,235.2,54.8z"/>
				<path class="st26" d="M248.9,77.3c-1.1-3.5-4.7-5.3-5.6-4.8c-0.9,0.5-2.7,3.3-1.5,7.3c1.2,4.1,4.5,5.8,6.6,3.2
					C250.4,80.5,248.9,77.3,248.9,77.3z"/>
				<path class="st14" d="M242.8,71.5c0,0,2,3,2,5.2c0,0,0.4,0.3,0.7,0.6c0.6,0.6,1.4,2.7,0.3,3.8c-1,1.1-2.5-1-2.5-1
					c-0.9-0.1-2.9-2.5-2.9-4.2C240.5,74.3,242.8,71.5,242.8,71.5z"/>
			</g>
			<g>
				<path class="st15" d="M245.5,60.1c0,0-5,9.5-5.3,14.8c-0.3,5.4,0.9,15.4,0.9,15.4h-4.8l-4.4,2.7l-6.6-0.8l-5.1,1.1l-5.4-2.5
					l-6.7,1.5l-4.4-3.2l-5.6,1.4c0,0,0.8-12.2-0.1-16.2c-0.9-4-3.6-15.2-3.6-15.2l7.8-1.6l4.7,5.3l8-1.7l5.8,3.7l5.4-3.2l6.2,1.9
					l5-3.7L245.5,60.1z"/>
				<path class="st17" d="M208.5,78.1l-0.4,14.1l-4.4-3.2c0.4-20.7-1.6-31.7-1.6-31.7l4.7,5.3L208.5,78.1z"/>
				<polygon class="st17" points="214.8,61 214.8,76.9 214.8,90.8 220.2,93.3 220.2,78.1 220.6,64.7 				"/>
				<path class="st17" d="M226,61.5L225,77.2l0.3,15.1l6.6,0.8c0,0-1.8-14.6-1.8-15.9s2-13.7,2-13.7L226,61.5z"/>
				<path class="st17" d="M245.5,60.1c0,0-5,9.5-5.3,14.8c-0.3,5.4,0.9,15.4,0.9,15.4h-4.8L235,77.2l2.2-17.5L245.5,60.1z"/>
			</g>
			<g>
				<path class="st14" d="M196,70.9c0,0,1.9-1,2.6-0.9c0.7,0,2.5,0.9,2.5,0.9s-0.1,0.9-0.7,0.5c-0.6-0.3-1.1-0.4-1.8,0l1.4,0.1
					l1.6,0.7c0,0-0.3,0.8-0.6,0.6c-0.4-0.1-1.3-0.5-1.3-0.5l-0.8,0.5c0,0,1.6,0.3,1.8,0.5c0.2,0.2,1,0.8,1,0.8s-0.3,0.7-0.8,0.3
					c-0.6-0.4-1.7-0.3-1.7-0.3s1,0.4,1.1,0.7c0.1,0.3,0.6,1.1,0.6,1.1s-0.2,0.5-0.6,0c-0.5-0.5-2.3-0.3-2.3-0.3S196.1,73.2,196,70.9
					z"/>
				<path class="st14" d="M242.8,71.5c0,0-1.9-1-2.6-0.9c-0.7,0-2.5,0.9-2.5,0.9s0.1,0.9,0.7,0.5c0.6-0.3,1.1-0.4,1.8,0l-1.4,0.1
					l-1.6,0.7c0,0,0.3,0.8,0.6,0.6c0.4-0.1,1.3-0.5,1.3-0.5l0.8,0.5c0,0-1.6,0.3-1.8,0.5c-0.2,0.2-1,0.8-1,0.8s0.3,0.7,0.8,0.3
					c0.6-0.4,1.7-0.3,1.7-0.3s-1,0.4-1.1,0.7c-0.1,0.3-0.6,1.1-0.6,1.1s0.2,0.5,0.6,0c0.5-0.5,2.3-0.3,2.3-0.3
					S242.6,73.7,242.8,71.5z"/>
			</g>
			<g>
				<path class="st13" d="M207.5,192.3c-0.1-4.1-1.1-7.8-1.1-7.8s-4.7-1.9-5.2,1.2c-0.5,3.2-3.1,3.9-4.4,4.2c-0.8,0.2-1,1.5-1,2.4
					H207.5z"/>
				<path class="st13" d="M231.5,192.3c0.1-4.1,1.1-7.8,1.1-7.8s4.7-1.9,5.2,1.2c0.5,3.2,3.1,3.9,4.4,4.2c0.8,0.2,1,1.5,1,2.4H231.5
					z"/>
			</g>
		</g>
	</g>
</g>
<g>
	<g>
		<path class="st28" d="M30.1,41.2V29.1h10.1v3.1h-5.8v1.5H39v2.9h-4.7v1.4h6v3.1H30.1z"/>
		<path class="st28" d="M53.8,41.2h-5.2L47,38.1l-1.5,3.1h-4.8l4-6l-3.9-6.1h5.1l1.4,3l1.4-3h4.7l-3.9,6L53.8,41.2z"/>
		<path class="st28" d="M61,29.1c1.1,0,2,0.2,2.8,0.5c0.8,0.3,1.3,0.8,1.7,1.5c0.4,0.6,0.6,1.4,0.6,2.3c0,0.9-0.2,1.7-0.6,2.3
			c-0.4,0.6-1,1.1-1.7,1.5s-1.7,0.5-2.8,0.5h-2.2v3.6h-4.3V29.1H61z M60.3,34.6c0.5,0,0.8-0.1,1.1-0.3c0.3-0.2,0.4-0.5,0.4-0.9
			s-0.1-0.7-0.4-0.9c-0.3-0.2-0.6-0.3-1.1-0.3h-1.5v2.5H60.3z"/>
		<path class="st28" d="M71.8,38.1h5.5v3.1h-9.8V29.1h4.3V38.1z"/>
		<path class="st28" d="M84.4,28.9c1.3,0,2.4,0.2,3.3,0.7c0.9,0.5,1.6,1.2,2.1,2.1c0.5,0.9,0.7,2.1,0.7,3.4s-0.2,2.5-0.7,3.4
			s-1.2,1.6-2.1,2.1c-0.9,0.5-2,0.7-3.3,0.7c-1.3,0-2.4-0.2-3.3-0.7c-0.9-0.5-1.6-1.2-2.1-2.1c-0.5-0.9-0.7-2.1-0.7-3.4
			s0.2-2.5,0.7-3.4c0.5-0.9,1.2-1.6,2.1-2.1C82.1,29.2,83.2,28.9,84.4,28.9z M84.4,32.1c-0.4,0-0.8,0.1-1,0.3
			c-0.3,0.2-0.5,0.5-0.6,1c-0.1,0.4-0.2,1-0.2,1.7c0,0.7,0.1,1.3,0.2,1.7c0.1,0.4,0.3,0.8,0.6,1s0.6,0.3,1,0.3c0.4,0,0.8-0.1,1-0.3
			c0.3-0.2,0.5-0.5,0.6-1c0.1-0.4,0.2-1,0.2-1.7c0-0.7-0.1-1.3-0.2-1.7c-0.1-0.4-0.3-0.8-0.6-1C85.2,32.3,84.8,32.1,84.4,32.1z"/>
		<path class="st28" d="M98.6,29.1c1.6,0,2.8,0.4,3.6,1.1s1.3,1.6,1.3,2.8c0,1.3-0.4,2.3-1.2,3c-0.8,0.7-2,1-3.6,1l-0.4,0.2h-2v4H92
			V29.1H98.6z M97.9,34.4c0.5,0,0.8-0.1,1-0.2c0.2-0.2,0.3-0.5,0.3-0.9c0-0.4-0.1-0.7-0.3-0.9c-0.2-0.2-0.6-0.3-1-0.3h-1.7v2.2H97.9
			z M100.4,35.3l3.8,5.9h-4.7l-2.8-5.3L100.4,35.3z"/>
		<path class="st28" d="M105,41.2V29.1h10.1v3.1h-5.8v1.5h4.7v2.9h-4.7v1.4h6v3.1H105z"/>
	</g>
</g>
</svg>
