<svg id="Layer_1" data-name="Layer 1" xmlns="http://www.w3.org/2000/svg" xmlns:xlink="http://www.w3.org/1999/xlink" viewBox="0 0 182.69 176"><defs><linearGradient id="linear-gradient" x1="71.5" y1="175.21" x2="71.5" y2="35.87" gradientUnits="userSpaceOnUse"><stop offset="0.7" stop-color="#fff"/><stop offset="1" stop-color="#efefef"/><stop offset="1" stop-color="#eee"/></linearGradient></defs><path d="M132.88,94.4v15.47a2,2,0,0,0,.6,1.42l45.89,36.16a2,2,0,0,0,3.32-1.42V54.79a2,2,0,0,0-3.39-1.36L133.42,93A2,2,0,0,0,132.88,94.4Z" fill="#fff"/><path d="M153,76,132.4,94c-.35.36-.54-.15-.54.36v15.47a2,2,0,0,0,.6,1.42L153,127Z" fill="#ddd"/><path d="M130,19.72,19.52,20A2.5,2.5,0,0,1,17,17.5V15H128Z" fill="#fff"/><path d="M139.14,27H62V88L41,67,20,88V27H17L0,17V164.6A11.4,11.4,0,0,0,11.4,176H143V34.72Z" fill="url(#linear-gradient)"/><path d="M20,27h-.5a9.5,9.5,0,0,1,0-19H129l-4-8H18.52A18.51,18.51,0,0,0,0,18.5,16.5,16.5,0,0,0,16.5,35H20Z" fill="#fff"/><polygon points="134.02 27 62.02 27 62.02 35 122.02 35 125.02 35 143.02 35 139 27 134.02 27" fill="#fff"/><polygon points="20.02 88 20.02 98 41.02 77 62.02 98 62.02 88 41.02 67 20.02 88" fill="#ddd"/></svg>