<svg id="Layer_1" data-name="Layer 1" xmlns="http://www.w3.org/2000/svg" xmlns:xlink="http://www.w3.org/1999/xlink" viewBox="0 0 743.48 176"><defs><linearGradient id="linear-gradient" x1="71.5" y1="175.21" x2="71.5" y2="35.87" gradientUnits="userSpaceOnUse"><stop offset="0.7" stop-color="#fff"/><stop offset="1" stop-color="#efefef"/><stop offset="1" stop-color="#eee"/></linearGradient></defs><path d="M132.88,94.4v15.47a2,2,0,0,0,.6,1.42l45.89,36.16a2,2,0,0,0,3.32-1.42V54.79a2,2,0,0,0-3.39-1.36L133.42,93A2,2,0,0,0,132.88,94.4Z" fill="#fff"/><path d="M153,76,132.4,94c-.35.36-.54-.15-.54.36v15.47a2,2,0,0,0,.6,1.42L153,127Z" fill="#ddd"/><path d="M130,19.72,19.52,20A2.5,2.5,0,0,1,17,17.5V15H128Z" fill="#fff"/><path d="M139.14,27H62V88L41,67,20,88V27H17L0,17V164.6A11.4,11.4,0,0,0,11.4,176H143V34.72Z" fill="url(#linear-gradient)"/><path d="M20,27h-.5a9.5,9.5,0,0,1,0-19H129l-4-8H18.52A18.51,18.51,0,0,0,0,18.5,16.5,16.5,0,0,0,16.5,35H20Z" fill="#fff"/><polygon points="134.02 27 62.02 27 62.02 35 122.02 35 125.02 35 143.02 35 139 27 134.02 27" fill="#fff"/><polygon points="20.02 88 20.02 98 41.02 77 62.02 98 62.02 88 41.02 67 20.02 88" fill="#ddd"/><path d="M256.16,49.16h22.09V67.05H256.16Zm0,27.51h22.09v69.39H256.16Z" fill="#fff"/><path d="M287.73,115.57h24.13c1.08,9.75,7.45,13.82,19,13.82,7.86,0,15.58-2.85,15.58-10.17,0-7.72-7.86-9.35-21.14-12.6-16.8-3.93-34.56-9.08-34.56-29.41,0-20.73,16.81-29.81,38.49-29.81,21,0,37.27,9.48,38.22,29.81H344c-1-7.45-6.65-11.65-15.59-11.65-8.4,0-14,3.66-14,9.08,0,6.77,7.45,8.4,22,11.65,18,4.2,34.28,9.76,34.28,30.5,0,20.32-17.34,31.57-39.71,31.57C305.21,148.36,288.27,137,287.73,115.57Z" fill="#fff"/><path d="M381.24,49.16h21.82v51l20.6-23.45h25.48l-24.4,26L452,146.06H426.37L409.7,117.73l-6.64,7v21.28H381.24Z" fill="#fff"/><path d="M453.74,76.67h22.5l7.59,28.73c1.49,5.56,3.11,13.42,3.11,13.42h.27s1.63-8,3.12-13.83l7.32-28.32h18.7L523.94,105c1.49,6,3.25,14,3.25,14h.28s1.76-8,3.25-13.55l7.72-28.73h21.82L539,146.06H518.25l-8.13-31.44c-1.49-5.42-3-12.47-3-12.47h-.27s-1.63,7-3.12,12.47l-8.27,31.44H475Z" fill="#fff"/><path d="M561.88,111.23c0-20.74,14.5-36.59,35.65-36.59,9.89,0,17.75,3.25,23.71,8.67,8.27,7.59,12.33,19.65,12.2,33.75H583.57c1.35,9.35,6.5,15.18,15.58,15.18,5.83,0,9.62-2.58,11.52-6.92h21.55a28.22,28.22,0,0,1-11.66,16.4c-5.82,4.07-12.87,6.37-21.68,6.37C576,148.09,561.88,132.24,561.88,111.23Zm49.2-7.32c-.82-8.27-6-13.55-13.15-13.55-8.4,0-12.74,5.28-14.23,13.55Z" fill="#fff"/><path d="M643.19,49.16h22.36v96.9H643.19Z" fill="#fff"/><path d="M675.17,126.68c0-15.32,12.2-19.92,26.57-21.82,13-1.63,17.62-3,17.62-7.73,0-4.47-2.85-7.45-9.49-7.45-7,0-10.57,3.12-11.25,8.95H678.29c.54-12.88,10.44-23.86,31.44-23.86,10.44,0,17.49,1.9,22.5,5.69,6,4.34,8.81,11.12,8.81,19.79v35c0,5.55.54,8.67,2.44,9.89v.95H722.07c-1.09-1.49-1.77-4.2-2.31-7.73h-.27c-4.06,5.83-10.16,9.49-20.6,9.49C685.07,147.82,675.17,140.37,675.17,126.68Zm44.73-5.42V113c-2.85,1.49-6.91,2.58-11.39,3.66-8.54,1.9-12.06,4.07-12.06,9.35,0,5.56,4.07,7.73,9.49,7.73C714.21,133.73,719.9,128.71,719.9,121.26Z" fill="#fff"/></svg>