<?xml version="1.0" encoding="utf-8"?>
<!-- Generator: Adobe Illustrator 24.2.0, SVG Export Plug-In . SVG Version: 6.00 Build 0)  -->
<svg version="1.0" id="Layer_1" xmlns="http://www.w3.org/2000/svg" xmlns:xlink="http://www.w3.org/1999/xlink" x="0px" y="0px"
	 viewBox="0 0 320 212.8" enable-background="new 0 0 320 212.8" xml:space="preserve">
<rect x="0" y="-0.5" fill="#6297D4" width="320" height="213.3"/>
<g>
	<path fill="#1829A3" d="M162.8,209c0.3,1.6-0.8,3.2-2.4,3.5l0,0c-1.6,0.3-3.2-0.8-3.5-2.4l-1.5-7.9c-0.3-1.6,0.8-3.2,2.4-3.5l0,0
		c1.6-0.3,3.2,0.8,3.5,2.4L162.8,209z"/>
	<path fill="#1829A3" d="M201.7,201.7c0.3,1.6-0.8,3.2-2.4,3.5l0,0c-1.6,0.3-3.2-0.8-3.5-2.4l-1.5-7.9c-0.3-1.6,0.8-3.2,2.4-3.5l0,0
		c1.6-0.3,3.2,0.8,3.5,2.4L201.7,201.7z"/>
	<path fill="#2980B7" d="M155.9,204.9l44.9-8.4l-3.4-17.9c0,0-0.8-1.9-2.6-2.4l-2.8-14.8c0,0-1.3-7.6-7.3-6.4
		c-6.1,1.1-29.1,5.5-29.1,5.5s-5.8,0.8-4.4,8c1.3,7.2,2.8,15.1,2.8,15.1s-1.8,1.4-1.5,2.9C152.7,188,155.9,204.9,155.9,204.9z"/>
	
		<rect x="157.1" y="196.7" transform="matrix(0.9829 -0.1843 0.1843 0.9829 -33.3502 36.1658)" fill="#1829A3" width="41.5" height="1.6"/>
	
		<rect x="172.2" y="197.9" transform="matrix(0.9829 -0.1843 0.1843 0.9829 -33.6944 36.1958)" fill="#1829A3" width="11.3" height="2.9"/>
	<g>
		<g>
			<path fill="#D2E4E4" d="M196,180.4c0.3,1.6-0.7,3.1-2.3,3.4c-1.6,0.3-3.1-0.7-3.4-2.3c-0.3-1.6,0.7-3.1,2.3-3.4
				C194.2,177.8,195.7,178.8,196,180.4z"/>
			<path fill="#D2E4E4" d="M160.3,187.1c0.3,1.6-0.7,3.1-2.3,3.4c-1.6,0.3-3.1-0.7-3.4-2.3c-0.3-1.6,0.7-3.1,2.3-3.4
				C158.4,184.5,160,185.5,160.3,187.1z"/>
		</g>
	</g>
	<path fill="#D2E4E4" d="M188.7,165.9c0.9,4.7-1.4,6-4.5,6.6l-21.1,3.9c-3,0.6-5.8-0.4-6.6-4.5l0,0c-0.7-3.7,1.4-6,4.5-6.6l21.1-3.9
		C185.2,160.9,188,162.1,188.7,165.9L188.7,165.9z"/>
	
		<rect x="166.3" y="156.7" transform="matrix(0.9829 -0.1843 0.1843 0.9829 -26.4326 34.244)" fill="#C42424" width="9.5" height="5.3"/>
	<path fill="#1829A3" d="M174.3,196.4c-3,0.6-5.9-1.4-6.5-4.4l-1-5.4c-0.6-3,1.4-5.9,4.4-6.5l5.9-1.1c3-0.6,5.9,1.4,6.5,4.4l1,5.4
		c0.6,3-1.4,5.9-4.4,6.5L174.3,196.4z"/>
	<path fill="#2980B7" d="M182.4,189.2c0.3,1.8-0.9,3.6-2.7,3.9l-5.9,1.1c-1.8,0.3-3.6-0.9-3.9-2.7l-1-5.4c-0.3-1.8,0.9-3.6,2.7-3.9
		l5.9-1.1c1.8-0.3,3.6,0.9,3.9,2.7L182.4,189.2z"/>
	<g>
		<g>
			<path fill="#D2E4E4" d="M180.2,182.9c0,0.3-0.1,0.5-0.4,0.6l-9.5,1.8c-0.3,0-0.5-0.1-0.6-0.4l0,0c0-0.3,0.1-0.5,0.4-0.6l9.5-1.8
				C179.9,182.5,180.1,182.6,180.2,182.9L180.2,182.9z"/>
			<path fill="#D2E4E4" d="M180.5,184.4c0,0.3-0.1,0.5-0.4,0.6l-9.5,1.8c-0.3,0-0.5-0.1-0.6-0.4l0,0c0-0.3,0.1-0.5,0.4-0.6l9.5-1.8
				C180.2,183.9,180.4,184.1,180.5,184.4L180.5,184.4z"/>
			<path fill="#D2E4E4" d="M180.8,186c0,0.3-0.1,0.5-0.4,0.6l-9.5,1.8c-0.3,0-0.5-0.1-0.6-0.4l0,0c0-0.3,0.1-0.5,0.4-0.6l9.5-1.8
				C180.5,185.5,180.7,185.7,180.8,186L180.8,186z"/>
			<path fill="#D2E4E4" d="M181,187.5c0,0.3-0.1,0.5-0.4,0.6l-9.5,1.8c-0.3,0-0.5-0.1-0.6-0.4l0,0c0-0.3,0.1-0.5,0.4-0.6l9.5-1.8
				C180.7,187,181,187.2,181,187.5L181,187.5z"/>
			<path fill="#D2E4E4" d="M181.3,188.9c0,0.3-0.1,0.5-0.4,0.6l-9.5,1.8c-0.3,0-0.5-0.1-0.6-0.4l0,0c0-0.3,0.1-0.5,0.4-0.6l9.5-1.8
				C181,188.5,181.3,188.7,181.3,188.9L181.3,188.9z"/>
			<path fill="#D2E4E4" d="M181.6,190.5c0,0.3-0.1,0.5-0.4,0.6l-9.5,1.8c-0.3,0-0.5-0.1-0.6-0.4l0,0c0-0.3,0.1-0.5,0.4-0.6l9.5-1.8
				C181.3,190.1,181.6,190.3,181.6,190.5L181.6,190.5z"/>
		</g>
	</g>
</g>
<g>
	<path fill="#C42424" d="M268,96.4c0,0,9.6-12.7,24.4-5.4c14.8,7.2,11.6,20.7,10.6,22.6C302,115.6,268,96.4,268,96.4z"/>
	
		<rect x="236.7" y="115.9" transform="matrix(0.4408 -0.8976 0.8976 0.4408 29.7392 318.546)" fill="#C42424" width="67.7" height="39"/>
	<path fill="#A01C1C" d="M299.1,114.1l-11.8-5.8l-5.5-2.7l-11.8-5.8c-0.6-0.3-1.3,0-1.6,0.5l-2.4,4.8c-0.3,0.6,0,1.3,0.5,1.6
		l11.8,5.8l5.5,2.7l11.8,5.8c0.6,0.3,1.3,0,1.6-0.5l2.4-4.8C299.9,115.1,299.7,114.4,299.1,114.1z"/>
	<path fill="#E13C36" d="M294.5,123.3l-11.8-5.8l-5.5-2.7l-11.8-5.8c-0.6-0.3-1.3,0-1.6,0.5l-1.5,3l-0.9,1.8l-18.3,37.3l-0.5,0.9
		l-1.9,3.9c-0.3,0.6,0,1.3,0.5,1.6l11.8,5.8l5.5,2.7l11.8,5.8c0.6,0.3,1.3,0,1.6-0.5l1.9-3.9l0.5-0.9l18.3-37.3l0.9-1.8l1.5-3
		C295.4,124.3,295.1,123.6,294.5,123.3z"/>
	<path fill="#E13C36" d="M292,93.3c0,0-7.2-3.7-14.9-0.9c-7.7,2.8-6.2,5.5-5.6,5.7c0.6,0.3,25.2,12.4,26.6,13.1
		c1.4,0.7,3,1.8,3.1-1.1C301.3,107.3,299.4,97.5,292,93.3z"/>
	<path fill="#A01C1C" d="M279.1,96.9c0,0,4.9-4.3,11-1.3c6.1,3,7,9.2,5.1,10.1C293.9,106.3,276.4,99.5,279.1,96.9z"/>
	<path fill="#E13C36" d="M295,114.1l-7.1-3.5l-1-0.5l-6.4-3.2l-0.7-0.3l-7.4-3.6c-0.2-0.1-0.5,0-0.6,0.2l-1.5,3.1
		c-0.1,0.2,0,0.5,0.2,0.6l7.4,3.6l0.7,0.3l6.4,3.2l1,0.5l7.1,3.5c0.2,0.1,0.5,0,0.6-0.2l1.5-3.1C295.3,114.5,295.2,114.2,295,114.1z
		"/>
	<g>
		<g>
			<path fill="#FFFFFF" d="M269.2,127.2c-0.3,0.6-0.9,0.8-1.5,0.5l-4.8-2.3c-0.6-0.3-0.8-0.9-0.5-1.5l4-8.1c0.3-0.6,0.9-0.8,1.5-0.5
				l4.8,2.3c0.6,0.3,0.8,0.9,0.5,1.5L269.2,127.2z"/>
			<path fill="#FFFFFF" d="M276.9,131c-0.3,0.6-0.9,0.8-1.5,0.5l-4.8-2.3c-0.6-0.3-0.8-0.9-0.5-1.5l4-8.1c0.3-0.6,0.9-0.8,1.5-0.5
				l4.8,2.3c0.6,0.3,0.8,0.9,0.5,1.5L276.9,131z"/>
			<path fill="#FFFFFF" d="M284.6,134.8c-0.3,0.6-0.9,0.8-1.5,0.5l-4.8-2.3c-0.6-0.3-0.8-0.9-0.5-1.5l4-8.1c0.3-0.6,0.9-0.8,1.5-0.5
				l4.8,2.3c0.6,0.3,0.8,0.9,0.5,1.5L284.6,134.8z"/>
			<path fill="#FFFFFF" d="M263.7,138.3c-0.3,0.6-0.9,0.8-1.5,0.5l-4.8-2.3c-0.6-0.3-0.8-0.9-0.5-1.5l4-8.1c0.3-0.6,1-0.8,1.5-0.5
				l4.8,2.3c0.6,0.3,0.8,0.9,0.5,1.5L263.7,138.3z"/>
			<path fill="#FFFFFF" d="M271.4,142.1c-0.3,0.6-0.9,0.8-1.5,0.5l-4.8-2.3c-0.6-0.3-0.8-0.9-0.5-1.5l4-8.1c0.3-0.6,0.9-0.8,1.5-0.5
				l4.8,2.3c0.6,0.3,0.8,0.9,0.5,1.5L271.4,142.1z"/>
			<path fill="#FFFFFF" d="M279.2,145.9c-0.3,0.6-0.9,0.8-1.5,0.5l-4.8-2.3c-0.6-0.3-0.8-0.9-0.5-1.5l4-8.1c0.3-0.6,1-0.8,1.5-0.5
				l4.8,2.3c0.6,0.3,0.8,0.9,0.5,1.5L279.2,145.9z"/>
			<path fill="#FFFFFF" d="M258.2,149.5c-0.3,0.6-0.9,0.8-1.5,0.5l-4.8-2.3c-0.6-0.3-0.8-0.9-0.5-1.5l4-8.1c0.3-0.6,0.9-0.8,1.5-0.5
				l4.8,2.3c0.6,0.3,0.8,0.9,0.5,1.5L258.2,149.5z"/>
			<path fill="#FFFFFF" d="M265.9,153.3c-0.3,0.6-0.9,0.8-1.5,0.5l-4.8-2.3c-0.6-0.3-0.8-0.9-0.5-1.5l4-8.1c0.3-0.6,0.9-0.8,1.5-0.5
				l4.8,2.3c0.6,0.3,0.8,0.9,0.5,1.5L265.9,153.3z"/>
			<path fill="#FFFFFF" d="M273.7,157.1c-0.3,0.6-0.9,0.8-1.5,0.5l-4.8-2.3c-0.6-0.3-0.8-0.9-0.5-1.5l4-8.1c0.3-0.6,0.9-0.8,1.5-0.5
				l4.8,2.3c0.6,0.3,0.8,0.9,0.5,1.5L273.7,157.1z"/>
		</g>
	</g>
	<path fill="#A01C1C" d="M274.4,174.3l-2.9-1.4l-2.9-1.4L243.3,159l-3-1.5l-2.8-1.4c-0.6-0.3-1.3,0-1.6,0.6l-1.9,3.8
		c-0.3,0.6,0,1.3,0.6,1.6l2.8,1.4l3,1.5l25.3,12.4l2.9,1.4l2.9,1.4c0.6,0.3,1.3,0,1.6-0.6l1.9-3.8
		C275.3,175.3,275,174.6,274.4,174.3z"/>
	<path fill="#A01C1C" d="M268.3,161l-2.5-1.2l-2.9-1.4l-5.9-2.9l-2.4-1.2l-3-1.5c-0.6-0.3-1.4-0.1-1.8,0.6l-1.5,3
		c-0.3,0.7-0.1,1.4,0.6,1.8l3,1.5l2.4,1.2l5.9,2.9l2.9,1.4l2.5,1.2c0.7,0.3,1.4,0.1,1.8-0.6l1.5-3C269.3,162.1,269,161.3,268.3,161z
		"/>
</g>
<path fill="#FFFFFF" d="M129.4,150.5c-1,0-2,0.2-2.9,0.6c-2.2-4.3-6.6-7.3-11.8-7.3c-4.7,0-8.9,2.5-11.2,6.3
	c-0.9-0.3-1.8-0.5-2.8-0.5c-4,0-7.4,2.6-8.5,6.2c-0.3,0-0.5-0.1-0.8-0.1c-2.5,0-4.5,2-4.5,4.5c0,2.5,2,4.5,4.5,4.5
	c0.9,0,1.7-0.2,2.3-0.7c1.6,2.1,4.2,3.4,7,3.4c1.7,0,3.2-0.5,4.6-1.3c2.4,2.5,5.8,4,9.5,4c4.2,0,7.9-1.9,10.3-5
	c1.3,0.8,2.8,1.3,4.4,1.3c4.4,0,8-3.6,8-8S133.9,150.5,129.4,150.5z"/>
<path fill="#FFFFFF" d="M236.1,66.3c-1.1,0-2.2,0.2-3.2,0.6c-2.4-4.7-7.3-8-12.9-8c-5.2,0-9.7,2.7-12.3,6.8c-1-0.3-2-0.5-3.1-0.5
	c-4.4,0-8.1,2.9-9.3,6.8c-0.3,0-0.6-0.1-0.9-0.1c-2.7,0-5,2.2-5,5c0,2.7,2.2,5,5,5c0.9,0,1.8-0.3,2.5-0.7c1.8,2.2,4.6,3.7,7.7,3.7
	c1.8,0,3.5-0.5,5-1.4c2.6,2.7,6.3,4.4,10.3,4.4c4.6,0,8.6-2.1,11.3-5.4c1.4,0.9,3,1.5,4.8,1.5c4.9,0,8.8-3.9,8.8-8.8
	C244.9,70.3,241,66.3,236.1,66.3z"/>
<path fill="#2980B7" d="M123.2,133.3c0,0,2.5-10.7,16.6-7.4c0,0-2.5-17,11.9-17.1c0,0-14.1,2.5-9.1,19.8
	C142.7,128.6,131,123.9,123.2,133.3z"/>
<path fill="#2980B7" d="M134.5,141.2c0,0,5.1-4.3,10.8,2.5c0,0,5-9.2,12.1-4c0,0-7.8-3.9-11.7,6.3
	C145.7,146,141.7,139.5,134.5,141.2z"/>
<path fill="#2980B7" d="M154.7,125.1c0,0,4.7-1.9,7.3,4.3c0,0,5.7-5.5,9.7-0.1c0,0-4.7-4.7-9.9,1.9
	C161.7,131.2,160.3,125.5,154.7,125.1z"/>
<g>
	
		<rect x="224.6" y="68.7" transform="matrix(0.9751 -0.2218 0.2218 0.9751 -12.1709 57.1372)" fill="#023D7C" width="47.4" height="28"/>
	<polygon fill="#FFFFFF" points="268.8,66.1 256.2,77.9 270.7,74.6 272.3,81.6 259.8,84.4 274,89 274.5,91.2 270.9,92 252.7,86.2 
		254.9,95.6 247.9,97.2 245.8,87.8 231.8,100.9 228.3,101.7 227.8,99.4 238.6,89.3 226.1,92.1 224.6,85.1 239.1,81.8 222.6,76.5 
		222.1,74.3 225.7,73.5 243.9,79.3 241.7,69.9 248.7,68.3 250.8,77.8 264.8,64.6 268.3,63.8 	"/>
	<polygon fill="#C42424" points="268.5,64.7 252,80.2 271,75.8 272.1,80.4 255.1,84.2 274.3,90.4 274.5,91.2 273.2,91.5 252.5,84.8 
		251.2,85.1 253.7,95.9 249.1,96.9 246.7,86.1 245.4,86.4 229.5,101.4 228.3,101.7 228.1,100.8 242.8,87 225.9,90.9 224.8,86.3 
		243.8,82 222.3,75.1 222.1,74.3 223.4,74.1 245.6,81.2 242.9,69.6 247.5,68.6 250.1,80.2 267.2,64.1 268.3,63.8 	"/>
</g>
</svg>
